<svg width="1418" height="337" viewBox="0 0 1418 337" fill="none" xmlns="http://www.w3.org/2000/svg">
<g filter="url(#filter0_d_2653_131)">
<path d="M88.3987 56.2999C88.0172 51.5319 86.2292 47.8129 83.0347 45.1428C79.8878 42.4727 75.0959 41.1377 68.6592 41.1377C64.5587 41.1377 61.1972 41.6383 58.5748 42.6396C56.0001 43.5932 54.0929 44.9044 52.8532 46.5732C51.6136 48.242 50.9699 50.1492 50.9222 52.2948C50.8268 54.0589 51.1368 55.6562 51.852 57.0866C52.6148 58.4693 53.8068 59.7329 55.428 60.8772C57.0491 61.9738 59.1232 62.9751 61.6502 63.881C64.1772 64.7869 67.1811 65.5975 70.6617 66.3127L82.6771 68.8874C90.7827 70.6039 97.7201 72.8687 103.489 75.6818C109.259 78.4949 113.979 81.8087 117.65 85.6231C121.322 89.3898 124.016 93.6333 125.732 98.3536C127.496 103.074 128.402 108.223 128.45 113.802C128.402 123.433 125.994 131.587 121.226 138.262C116.458 144.937 109.64 150.015 100.772 153.496C91.9508 156.976 81.342 158.716 68.9452 158.716C56.2147 158.716 45.1052 156.833 35.6169 153.066C26.1763 149.3 18.8336 143.507 13.5888 135.687C8.39167 127.82 5.76928 117.759 5.7216 105.506H43.4841C43.7225 109.988 44.843 113.754 46.8456 116.806C48.8481 119.857 51.6612 122.17 55.2849 123.743C58.9563 125.317 63.319 126.103 68.3731 126.103C72.6166 126.103 76.1687 125.579 79.0295 124.53C81.8903 123.481 84.0598 122.027 85.5379 120.167C87.0159 118.308 87.7788 116.186 87.8265 113.802C87.7788 111.561 87.0398 109.606 85.6094 107.937C84.2267 106.221 81.938 104.695 78.7435 103.36C75.5489 101.977 71.2339 100.69 65.7984 99.498L51.2083 96.3511C38.2393 93.538 28.012 88.8415 20.5262 82.2617C13.0882 75.6341 9.39295 66.5988 9.44063 55.1556C9.39295 45.858 11.8723 37.7286 16.8787 30.7673C21.9328 23.7583 28.9179 18.299 37.8341 14.3892C46.7979 10.4795 57.0729 8.52458 68.6592 8.52458C80.4838 8.52458 90.7111 10.5033 99.3412 14.4607C107.971 18.4182 114.623 23.9967 119.295 31.1964C124.016 38.3484 126.4 46.7162 126.447 56.2999H88.3987ZM137.534 157V10.5271H177.299V69.7457H179.302L223.358 10.5271H269.703L220.211 75.7533L270.847 157H223.358L190.459 102.073L177.299 119.237V157H137.534ZM313.511 157H270.599L318.946 10.5271H373.301L421.649 157H378.737L346.696 50.8644H345.551L313.511 157ZM305.5 99.2119H386.175V128.964H305.5V99.2119ZM429.714 157V10.5271H469.479V124.959H528.698V157H429.714ZM576.778 157H533.866L582.214 10.5271H636.569L684.916 157H642.005L609.964 50.8644H608.819L576.778 157ZM568.768 99.2119H649.443V128.964H568.768V99.2119ZM88.3987 223.3C88.0172 218.532 86.2292 214.813 83.0347 212.143C79.8878 209.473 75.0959 208.138 68.6592 208.138C64.5587 208.138 61.1972 208.638 58.5748 209.64C56.0001 210.593 54.0929 211.904 52.8532 213.573C51.6136 215.242 50.9699 217.149 50.9222 219.295C50.8268 221.059 51.1368 222.656 51.852 224.087C52.6148 225.469 53.8068 226.733 55.428 227.877C57.0491 228.974 59.1232 229.975 61.6502 230.881C64.1772 231.787 67.1811 232.598 70.6617 233.313L82.6771 235.887C90.7827 237.604 97.7201 239.869 103.489 242.682C109.259 245.495 113.979 248.809 117.65 252.623C121.322 256.39 124.016 260.633 125.732 265.354C127.496 270.074 128.402 275.223 128.45 280.802C128.402 290.433 125.994 298.587 121.226 305.262C116.458 311.937 109.64 317.015 100.772 320.496C91.9508 323.976 81.342 325.716 68.9452 325.716C56.2147 325.716 45.1052 323.833 35.6169 320.066C26.1763 316.3 18.8336 310.507 13.5888 302.687C8.39167 294.82 5.76928 284.759 5.7216 272.506H43.4841C43.7225 276.988 44.843 280.754 46.8456 283.806C48.8481 286.857 51.6612 289.17 55.2849 290.743C58.9563 292.317 63.319 293.103 68.3731 293.103C72.6166 293.103 76.1687 292.579 79.0295 291.53C81.8903 290.481 84.0598 289.027 85.5379 287.167C87.0159 285.308 87.7788 283.186 87.8265 280.802C87.7788 278.561 87.0398 276.606 85.6094 274.937C84.2267 273.221 81.938 271.695 78.7435 270.36C75.5489 268.977 71.2339 267.69 65.7984 266.498L51.2083 263.351C38.2393 260.538 28.012 255.841 20.5262 249.262C13.0882 242.634 9.39295 233.599 9.44063 222.156C9.39295 212.858 11.8723 204.729 16.8787 197.767C21.9328 190.758 28.9179 185.299 37.8341 181.389C46.7979 177.479 57.0729 175.525 68.6592 175.525C80.4838 175.525 90.7111 177.503 99.3412 181.461C107.971 185.418 114.623 190.997 119.295 198.196C124.016 205.348 126.4 213.716 126.447 223.3H88.3987ZM137.534 324V177.527H243.098V209.568H177.299V234.743H237.662V266.784H177.299V291.959H242.812V324H137.534ZM383.511 177.527V324H350.325L297.401 247.045H296.542V324H256.777V177.527H290.535L342.601 254.197H343.746V177.527H383.511ZM434.327 324H391.415L439.763 177.527H494.118L542.465 324H499.553L467.512 217.864H466.368L434.327 324ZM426.317 266.212H506.991V295.964H426.317V266.212ZM677.264 177.527V324H644.079L591.154 247.045H590.296V324H550.531V177.527H584.288L636.354 254.197H637.499V177.527H677.264ZM746.389 324H690.032V177.527H745.817C760.884 177.527 773.901 180.459 784.867 186.324C795.881 192.141 804.368 200.533 810.328 211.499C816.336 222.418 819.34 235.506 819.34 250.764C819.34 266.021 816.36 279.133 810.4 290.1C804.44 301.018 796 309.41 785.082 315.275C774.163 321.092 761.266 324 746.389 324ZM729.797 290.243H744.959C752.206 290.243 758.381 289.074 763.483 286.738C768.632 284.402 772.542 280.373 775.212 274.651C777.93 268.93 779.289 260.967 779.289 250.764C779.289 240.56 777.906 232.598 775.14 226.876C772.423 221.154 768.418 217.125 763.125 214.789C757.88 212.453 751.443 211.285 743.815 211.285H729.797V290.243ZM831.696 324V177.527H871.461V234.743H924.1V177.527H963.865V324H924.1V266.784H871.461V324H831.696ZM1016.47 177.527V324H976.704V177.527H1016.47ZM1029.27 324V177.527H1069.04V236.746H1071.04L1115.1 177.527H1161.44L1111.95 242.753L1162.59 324H1115.1L1082.2 269.073L1069.04 286.237V324H1029.27ZM1205.25 324H1162.34L1210.68 177.527H1265.04L1313.39 324H1270.48L1238.43 217.864H1237.29L1205.25 324ZM1197.24 266.212H1277.91V295.964H1197.24V266.212Z" fill="url(#paint0_linear_2653_131)"/>
<path d="M742.087 134.28V71.5501H755.35V99.209H756.177L778.751 71.5501H794.648L771.369 99.6378L794.924 134.28H779.058L761.874 108.49L755.35 116.454V134.28H742.087ZM832.206 134.28H817.994L839.649 71.5501H856.741L878.365 134.28H864.153L848.44 85.8849H847.95L832.206 134.28ZM831.318 109.623H864.888V119.976H831.318V109.623ZM905.754 134.28V71.5501H930.871C935.486 71.5501 939.335 72.2342 942.418 73.6023C945.502 74.9704 947.819 76.8695 949.371 79.2995C950.923 81.709 951.699 84.4861 951.699 87.6308C951.699 90.0812 951.209 92.2355 950.229 94.0937C949.249 95.9315 947.901 97.4426 946.186 98.627C944.491 99.7909 942.551 100.618 940.366 101.108V101.721C942.755 101.823 944.991 102.497 947.074 103.742C949.177 104.988 950.882 106.734 952.189 108.98C953.496 111.206 954.149 113.86 954.149 116.944C954.149 120.272 953.322 123.243 951.668 125.857C950.035 128.45 947.615 130.503 944.409 132.014C941.203 133.525 937.252 134.28 932.555 134.28H905.754ZM919.017 123.437H929.829C933.525 123.437 936.221 122.733 937.916 121.324C939.61 119.894 940.458 117.995 940.458 115.627C940.458 113.891 940.039 112.359 939.202 111.032C938.365 109.705 937.17 108.663 935.618 107.908C934.087 107.152 932.259 106.775 930.136 106.775H919.017V123.437ZM919.017 97.8H928.849C930.667 97.8 932.28 97.4835 933.689 96.8504C935.118 96.197 936.241 95.2781 937.058 94.0937C937.895 92.9094 938.314 91.4902 938.314 89.8362C938.314 87.5696 937.507 85.742 935.894 84.3534C934.301 82.9649 932.035 82.2706 929.094 82.2706H919.017V97.8ZM995.881 71.5501V134.28H982.618V71.5501H995.881ZM1079.1 71.5501V134.28H1067.64L1040.35 94.7982H1039.89V134.28H1026.63V71.5501H1038.27L1065.35 111.001H1065.9V71.5501H1079.1ZM1109.9 134.28V71.5501H1152.17V82.485H1123.16V97.4324H1149.99V108.367H1123.16V123.345H1152.29V134.28H1109.9ZM1180.16 82.485V71.5501H1231.68V82.485H1212.47V134.28H1199.36V82.485H1180.16Z" fill="url(#paint1_linear_2653_131)"/>
</g>
<defs>
<filter id="filter0_d_2653_131" x="5.72168" y="8.52441" width="1318.67" height="328.192" filterUnits="userSpaceOnUse" color-interpolation-filters="sRGB">
<feFlood flood-opacity="0" result="BackgroundImageFix"/>
<feColorMatrix in="SourceAlpha" type="matrix" values="0 0 0 0 0 0 0 0 0 0 0 0 0 0 0 0 0 0 127 0" result="hardAlpha"/>
<feOffset dx="7" dy="7"/>
<feGaussianBlur stdDeviation="2"/>
<feComposite in2="hardAlpha" operator="out"/>
<feColorMatrix type="matrix" values="0 0 0 0 0 0 0 0 0 0 0 0 0 0 0 0 0 0 0.25 0"/>
<feBlend mode="normal" in2="BackgroundImageFix" result="effect1_dropShadow_2653_131"/>
<feBlend mode="normal" in="SourceGraphic" in2="effect1_dropShadow_2653_131" result="shape"/>
</filter>
<linearGradient id="paint0_linear_2653_131" x1="708.556" y1="-137.918" x2="708.919" y2="259.447" gradientUnits="userSpaceOnUse">
<stop stop-color="#D8ECFF"/>
<stop offset="1" stop-color="#62A7E9"/>
</linearGradient>
<linearGradient id="paint1_linear_2653_131" x1="985.98" y1="32.5798" x2="986.035" y2="123.914" gradientUnits="userSpaceOnUse">
<stop stop-color="#D8ECFF"/>
<stop offset="1" stop-color="#62A7E9"/>
</linearGradient>
</defs>
</svg>
