<svg width="816" height="816" viewBox="0 0 816 816" fill="none" xmlns="http://www.w3.org/2000/svg">
<path d="M451.881 407.199L452.001 407.301L498.83 429.746L344.055 540.857L343.953 540.773L423.247 365.368L451.881 407.199ZM606.068 221.104L606.007 221.077L526.748 396.4L497.672 353.921L451.58 331.83L605.938 221.021L605.896 220.963L606.068 221.104Z" fill="url(#paint0_linear_2905_30)"/>
<path d="M487.642 156.745C448.527 144.288 407.042 141.146 366.498 147.57C325.953 153.994 287.471 169.806 254.123 193.744C220.775 217.682 193.483 249.083 174.427 285.442C155.37 321.801 145.075 362.111 144.365 403.155C143.654 444.199 152.546 484.841 170.333 521.838C188.119 558.835 214.307 591.162 246.806 616.241C279.306 641.319 317.217 658.454 357.515 666.278C397.813 674.102 439.381 672.398 478.904 661.303L457.547 585.227C429.881 592.993 400.783 594.186 372.575 588.709C344.366 583.232 317.829 571.238 295.079 553.683C272.329 536.128 253.998 513.499 241.548 487.601C229.097 461.703 222.872 433.254 223.37 404.523C223.867 375.792 231.074 347.575 244.413 322.124C257.753 296.673 276.857 274.692 300.201 257.935C323.545 241.179 350.482 230.111 378.863 225.614C407.244 221.117 436.284 223.316 463.664 232.036L487.642 156.745Z" fill="url(#paint1_linear_2905_30)"/>
<defs>
<linearGradient id="paint0_linear_2905_30" x1="328.295" y1="142.34" x2="417.073" y2="549.936" gradientUnits="userSpaceOnUse">
<stop stop-color="white"/>
<stop offset="0.339123" stop-color="#8ECBFF"/>
<stop offset="0.684781" stop-color="#3A79FF"/>
<stop offset="1" stop-color="#1200AD"/>
</linearGradient>
<linearGradient id="paint1_linear_2905_30" x1="14.5126" y1="101.47" x2="397.717" y2="729.577" gradientUnits="userSpaceOnUse">
<stop stop-color="white"/>
<stop offset="0.339123" stop-color="#FFFF8E"/>
<stop offset="0.684781" stop-color="#FFD83A"/>
<stop offset="1" stop-color="#A48B00"/>
</linearGradient>
</defs>
</svg>
