<svg width="192" height="288" viewBox="0 0 192 288" fill="none" xmlns="http://www.w3.org/2000/svg">
<g filter="url(#filter0_d_2598_1367)">
<path d="M37.1248 41.1897C34.346 33.8783 55.9834 60.6641 77.2429 56.4553C83.2341 55.6162 87.6717 54.8662 91.117 54.2746C91.4358 54.1831 91.756 54.0938 92.0779 54.008C121.258 46.2268 151.525 64.7122 159.68 95.2961C159.86 95.9684 160.026 96.6411 160.181 97.3137C157.358 100.623 154.24 104.518 150.812 109.056C136.518 127.977 156.642 72.3201 114.713 77.0559C95.6723 82.1332 75.449 103.399 81.8601 127.443C86.4869 144.793 99.8582 160.628 114.098 166.193C87.4054 169.284 61.4661 151.436 54.0095 123.474C48.7484 103.744 53.975 83.7982 66.1814 70.0373C50.9894 65.7333 42.6378 55.6953 37.1248 41.1897Z" fill="#6C9BFF"/>
<circle cx="98.4924" cy="35.487" r="13.2898" fill="#FFFF98"/>
<rect x="69.6982" y="199.67" width="57.5889" height="20.2115" rx="10.1058" fill="#376FE6"/>
<path d="M45.3789 71.5059C37.0515 83.3705 32.0439 98.1573 32.0439 113.148C32.0441 147.247 57.951 174.89 89.9092 174.891C119.585 174.891 144.043 151.055 147.386 120.349C151.336 120.06 155.423 118.484 158.935 115.608C163.651 111.746 166.273 106.403 166.49 101.279C169.956 110.345 171.863 120.236 171.863 130.591C171.863 174.323 137.867 209.775 95.9316 209.775C53.9958 209.775 20.0001 174.323 20 130.591C20 107.105 29.8051 86.0071 45.3789 71.5059ZM159.298 86.9482C159.698 87.5783 160.089 88.2149 160.472 88.8574C159.906 88.4733 159.314 88.1309 158.699 87.833C158.897 87.5378 159.098 87.2436 159.298 86.9482Z" fill="#FFFF98"/>
<rect x="73.8516" y="225.973" width="49.1444" height="10.7728" rx="5.38639" fill="#376FE6"/>
<rect x="79.8037" y="242.861" width="37.3774" height="10.7979" rx="5.39896" fill="#376FE6"/>
<path d="M110.389 25.3789H109.715C108.079 22.7391 103.642 20.8447 98.4238 20.8447C93.2055 20.8448 88.7696 22.7392 87.1338 25.3789H86.459V15.0215L98.6592 17.0186L110.389 15.0215V25.3789Z" fill="#376FE6"/>
<path d="M98.4638 16.1211L80.8654 11.0605H116.062L98.4638 16.1211Z" fill="#376FE6"/>
<path d="M98.4638 6L80.8654 11.0606H116.062L98.4638 6Z" fill="#376FE6"/>
</g>
<defs>
<filter id="filter0_d_2598_1367" x="0" y="0" width="191.863" height="287.66" filterUnits="userSpaceOnUse" color-interpolation-filters="sRGB">
<feFlood flood-opacity="0" result="BackgroundImageFix"/>
<feColorMatrix in="SourceAlpha" type="matrix" values="0 0 0 0 0 0 0 0 0 0 0 0 0 0 0 0 0 0 127 0" result="hardAlpha"/>
<feOffset dy="14"/>
<feGaussianBlur stdDeviation="10"/>
<feComposite in2="hardAlpha" operator="out"/>
<feColorMatrix type="matrix" values="0 0 0 0 0 0 0 0 0 0 0 0 0 0 0 0 0 0 0.25 0"/>
<feBlend mode="normal" in2="BackgroundImageFix" result="effect1_dropShadow_2598_1367"/>
<feBlend mode="normal" in="SourceGraphic" in2="effect1_dropShadow_2598_1367" result="shape"/>
</filter>
</defs>
</svg>
