<svg width="258" height="168" viewBox="0 0 258 168" fill="none" xmlns="http://www.w3.org/2000/svg">
<g filter="url(#filter0_d_2364_103)">
<path d="M128.518 55.0088C150.56 55.0084 180.141 0.412529 180.77 30.8877C168.408 31.6301 152.32 52.4358 140.044 86.0879C134.787 100.498 130.874 115.505 128.388 129.81C125.901 115.505 121.988 100.498 116.731 86.0879C104.696 53.0968 88.9966 32.4529 76.7375 30.9551C77.7546 0.332006 106.459 55.0088 128.518 55.0088Z" fill="#6C9BFF"/>
<path d="M128.418 36.4736C150.461 36.4728 180.041 -18.1223 180.669 12.3525C168.308 13.096 152.22 33.9015 139.945 67.5527C134.688 81.9628 130.775 96.9687 128.288 111.273C125.801 96.969 121.888 81.9635 116.631 67.5537C104.596 34.5626 88.8971 13.9187 76.638 12.4208C77.6546 -18.2042 106.359 36.4736 128.418 36.4736Z" fill="#6C9BFF"/>
<circle cx="128.604" cy="15.7661" r="13.7661" fill="#FFFF98"/>
<path d="M23.1961 51.8349C23.046 67.4095 33.3461 91.6558 51.3055 115.025C76.543 147.865 103.705 156.647 120.106 156.731C122.691 141.43 122.755 116.457 102.765 86.8002C105.407 103.156 100.557 114.512 89.6677 115.102C78.0654 116.771 52.4215 101.754 32.8121 69.2041C29.2528 63.296 26.0338 57.4595 23.1961 51.8349Z" fill="#376FE6"/>
<path d="M233.968 52.0556C234.118 67.6301 223.817 91.8763 205.857 115.246C180.62 148.085 153.459 156.868 137.058 156.953C134.473 141.651 134.408 116.678 154.398 87.0209C151.756 103.377 156.607 114.733 167.496 115.323C179.098 116.992 204.742 101.975 224.352 69.4248C227.911 63.5166 231.13 57.6802 233.968 52.0556Z" fill="#376FE6"/>
<ellipse cx="174.348" cy="90.3487" rx="13.0366" ry="16.9282" transform="rotate(29.2861 174.348 90.3487)" fill="#FFFF98"/>
<ellipse cx="13.0366" cy="16.9282" rx="13.0366" ry="16.9282" transform="matrix(-0.872188 0.489172 0.489172 0.872188 84.315 69.207)" fill="#FFFF98"/>
</g>
<defs>
<filter id="filter0_d_2364_103" x="16.7814" y="0.0760751" width="223.601" height="167.779" filterUnits="userSpaceOnUse" color-interpolation-filters="sRGB">
<feFlood flood-opacity="0" result="BackgroundImageFix"/>
<feColorMatrix in="SourceAlpha" type="matrix" values="0 0 0 0 0 0 0 0 0 0 0 0 0 0 0 0 0 0 127 0" result="hardAlpha"/>
<feOffset dy="4.48916"/>
<feGaussianBlur stdDeviation="3.20654"/>
<feComposite in2="hardAlpha" operator="out"/>
<feColorMatrix type="matrix" values="0 0 0 0 0 0 0 0 0 0 0 0 0 0 0 0 0 0 0.25 0"/>
<feBlend mode="normal" in2="BackgroundImageFix" result="effect1_dropShadow_2364_103"/>
<feBlend mode="normal" in="SourceGraphic" in2="effect1_dropShadow_2364_103" result="shape"/>
</filter>
</defs>
</svg>
