<svg width="749" height="783" viewBox="0 0 749 783" fill="none" xmlns="http://www.w3.org/2000/svg">
<g clip-path="url(#clip0_3103_6)">
<g filter="url(#filter0_d_3103_6)">
<rect x="222.354" y="379.617" width="360.133" height="297.01" fill="#6C9BFF"/>
<rect x="267.799" y="495.291" width="50.9688" height="50.9688" fill="#FFFF98"/>
<rect x="374.669" y="495.291" width="50.9688" height="50.9688" fill="#FFFF98"/>
<rect x="479.347" y="487.617" width="50.9688" height="50.9688" fill="#FFFF98"/>
<rect x="267.799" y="401.573" width="50.9688" height="50.9688" fill="#FFFF98"/>
<rect x="479.347" y="401.573" width="50.9688" height="50.9688" fill="#FFFF98"/>
<rect x="374.669" y="401.573" width="50.9688" height="50.9688" fill="#FFFF98"/>
<rect x="222.311" y="321.559" width="360.07" height="47.1324" fill="#6C9BFF"/>
<path d="M400.428 232.774L581.735 312.105H219.121L400.428 232.774Z" fill="#376FE6"/>
<rect x="175.178" y="368.691" width="450.498" height="12.0571" fill="#376FE6"/>
<rect x="175.178" y="311.692" width="450.498" height="12.0571" fill="#376FE6"/>
<path d="M171.102 208.013C157.213 196.073 136.121 197.57 125.62 212.575C94.7207 256.727 74.886 307.859 68.0402 361.644C59.7941 426.431 70.7574 492.214 99.5693 550.825C128.381 609.436 173.773 658.294 230.108 691.334C286.444 724.374 351.243 740.141 416.461 736.676C481.679 733.212 544.443 710.67 596.962 671.848C649.481 633.026 689.441 579.635 711.882 518.301C734.323 456.968 738.256 390.395 723.193 326.846C710.689 274.089 685.549 225.345 650.147 184.715C638.115 170.906 616.983 171.652 604.437 184.996V184.996C591.891 198.34 592.725 219.212 604.412 233.314C630.527 264.823 649.149 302.035 658.656 342.143C670.722 393.05 667.571 446.379 649.594 495.511C631.618 544.643 599.607 587.413 557.536 618.512C515.465 649.611 465.187 667.669 412.943 670.444C360.699 673.219 308.791 660.589 263.662 634.121C218.534 607.654 182.172 568.516 159.092 521.565C136.012 474.613 127.23 421.917 133.835 370.019C139.04 329.13 153.616 290.154 176.245 256.056C186.373 240.796 184.991 219.953 171.102 208.013V208.013Z" fill="#376FE6"/>
<path d="M591.609 159.762C603.43 145.772 601.754 124.693 586.66 114.319C531.166 76.1812 465.174 55.5871 397.321 55.69C329.468 55.793 263.539 76.5872 208.161 114.893C193.099 125.313 191.486 146.397 203.35 160.351V160.351C215.213 174.305 236.048 175.8 251.364 165.756C294.566 137.424 345.285 122.095 397.422 122.016C449.559 121.937 500.324 137.112 543.611 165.313C558.958 175.31 579.788 173.751 591.609 159.762V159.762Z" fill="#6C9BFF"/>
<circle cx="397.242" cy="156.628" r="53.8436" transform="rotate(134.402 397.242 156.628)" fill="#FFFF98"/>
</g>
</g>
<defs>
<filter id="filter0_d_3103_6" x="41.6315" y="48.5674" width="714.291" height="728.936" filterUnits="userSpaceOnUse" color-interpolation-filters="sRGB">
<feFlood flood-opacity="0" result="BackgroundImageFix"/>
<feColorMatrix in="SourceAlpha" type="matrix" values="0 0 0 0 0 0 0 0 0 0 0 0 0 0 0 0 0 0 127 0" result="hardAlpha"/>
<feOffset dy="16.6181"/>
<feGaussianBlur stdDeviation="11.87"/>
<feComposite in2="hardAlpha" operator="out"/>
<feColorMatrix type="matrix" values="0 0 0 0 0 0 0 0 0 0 0 0 0 0 0 0 0 0 0.25 0"/>
<feBlend mode="normal" in2="BackgroundImageFix" result="effect1_dropShadow_3103_6"/>
<feBlend mode="normal" in="SourceGraphic" in2="effect1_dropShadow_3103_6" result="shape"/>
</filter>
<clipPath id="clip0_3103_6">
<rect width="749" height="782.236" fill="white" transform="translate(0 0.763672)"/>
</clipPath>
</defs>
</svg>
