<svg width="363" height="345" viewBox="0 0 363 345" fill="none" xmlns="http://www.w3.org/2000/svg">
<g filter="url(#filter0_d_2598_887)">
<path d="M144.243 285.129V103.656L165.338 95.4355M165.338 95.4355V285.129H185.813V103.656L165.338 95.4355Z" stroke="#6C9BFF" stroke-width="6.58979"/>
<path d="M203.072 276.416V87.6294L226.592 79.0781M226.592 79.0781V276.416L249.42 267.207V87.6294L226.592 79.0781Z" stroke="#6C9BFF" stroke-width="6.58979"/>
<path d="M94.0869 256.19V123.646L110.333 116.668M110.333 116.668V264.074L126.101 270.178V123.646L110.333 116.668Z" stroke="#6C9BFF" stroke-width="6.58979"/>
<path d="M282.314 228.296C288.605 231.784 290.835 239.522 286.612 245.052C275.182 260.015 260.344 272.405 243.142 281.257C222.094 292.089 198.319 297.207 174.416 296.053C150.514 294.898 127.407 287.515 107.621 274.711C91.4871 264.27 78.069 250.552 68.2984 234.609C64.6183 228.605 67.5109 221.179 74.0433 218.357V218.357C80.6329 215.51 88.4089 218.442 92.2913 224.403C99.9646 236.184 110.175 246.348 122.304 254.197C138.133 264.44 156.619 270.347 175.74 271.27C194.862 272.194 213.882 268.099 230.721 259.434C243.826 252.69 255.216 243.38 264.169 232.169C268.423 226.843 276.155 224.881 282.314 228.296V228.296Z" fill="#376FE6"/>
<path d="M296.019 205.283L298.896 251.539L254.737 226.346L296.019 205.283Z" fill="#376FE6"/>
<circle cx="278.328" cy="181.808" r="14.5734" fill="#FFFF98"/>
<path d="M278.315 172.734V190.837" stroke="#376FE6" stroke-width="1.64565" stroke-linecap="round" stroke-linejoin="round"/>
<path d="M282.43 176.025H276.258C275.495 176.025 274.762 176.329 274.222 176.869C273.682 177.409 273.378 178.141 273.378 178.905C273.378 179.669 273.682 180.402 274.222 180.942C274.762 181.482 275.495 181.785 276.258 181.785H280.372C281.136 181.785 281.869 182.089 282.409 182.629C282.949 183.169 283.252 183.901 283.252 184.665C283.252 185.429 282.949 186.161 282.409 186.701C281.869 187.242 281.136 187.545 280.372 187.545H273.378" fill="#FFFF98"/>
<path d="M282.43 176.025H276.258C275.495 176.025 274.762 176.329 274.222 176.869C273.682 177.409 273.378 178.141 273.378 178.905C273.378 179.669 273.682 180.402 274.222 180.942C274.762 181.482 275.495 181.785 276.258 181.785H280.372C281.136 181.785 281.869 182.089 282.409 182.629C282.949 183.169 283.252 183.901 283.252 184.665C283.252 185.429 282.949 186.161 282.409 186.701C281.869 187.242 281.136 187.545 280.372 187.545H273.378" stroke="#376FE6" stroke-width="1.64565" stroke-linecap="round" stroke-linejoin="round"/>
</g>
<defs>
<filter id="filter0_d_2598_887" x="59.3597" y="73.3698" width="246.858" height="235.29" filterUnits="userSpaceOnUse" color-interpolation-filters="sRGB">
<feFlood flood-opacity="0" result="BackgroundImageFix"/>
<feColorMatrix in="SourceAlpha" type="matrix" values="0 0 0 0 0 0 0 0 0 0 0 0 0 0 0 0 0 0 127 0" result="hardAlpha"/>
<feOffset dy="5.12539"/>
<feGaussianBlur stdDeviation="3.66099"/>
<feComposite in2="hardAlpha" operator="out"/>
<feColorMatrix type="matrix" values="0 0 0 0 0 0 0 0 0 0 0 0 0 0 0 0 0 0 0.25 0"/>
<feBlend mode="normal" in2="BackgroundImageFix" result="effect1_dropShadow_2598_887"/>
<feBlend mode="normal" in="SourceGraphic" in2="effect1_dropShadow_2598_887" result="shape"/>
</filter>
</defs>
</svg>
