<svg width="232" height="270" viewBox="0 0 232 270" fill="none" xmlns="http://www.w3.org/2000/svg">
<g filter="url(#filter0_d_2598_1401)">
<path d="M37.0144 152.266L116.748 152.266L128.072 245.534C128.745 251.072 124.422 255.951 118.843 255.951L34.8608 255.951C29.2796 255.951 24.9563 251.068 25.6324 245.528L37.0144 152.266Z" fill="#6C9BFF"/>
<path d="M17.3877 69.8206L61.4832 59.168L115.65 147.746L36.627 147.746L17.3877 69.8206Z" fill="#6C9BFF"/>
<path d="M76.9136 70.4023L102.351 88.7378L131.403 109.462L119.524 144.39L76.9136 70.4023Z" fill="#6C9BFF"/>
<rect x="9" y="46.2598" width="49.8504" height="25.5248" transform="rotate(-19.2548 9 46.2598)" fill="#6C9BFF"/>
<rect x="55.8398" y="28.707" width="47.4719" height="17.4541" transform="rotate(32.1606 55.8398 28.707)" fill="#6C9BFF"/>
<rect x="143.49" y="61.623" width="19.6267" height="42.4814" transform="rotate(37.3522 143.49 61.623)" fill="#6C9BFF"/>
<rect x="123.74" y="44.2969" width="22.2182" height="42.4814" transform="rotate(37.3522 123.74 44.2969)" fill="#6C9BFF"/>
<path d="M100.605 25.2344L120.743 40.6041L94.9686 74.3735L88.4701 70.1448L98.7353 53.1006L86.0813 44.3202L100.605 25.2344Z" fill="#6C9BFF"/>
<path d="M76.8628 3L97.0064 18.3743L81.0453 43.2218L59.9983 28.5663L76.8628 3Z" fill="#6C9BFF"/>
<path d="M141.84 235.231C144.824 233.077 146.83 229.825 147.417 226.191L147.605 225.026C147.97 222.823 148.971 220.774 150.485 219.133C151.999 217.491 153.959 216.328 156.126 215.787C158.339 215.209 160.676 215.307 162.833 216.069C164.99 216.83 166.87 218.221 168.23 220.061L168.574 220.538C169.641 222.018 170.989 223.272 172.541 224.23C174.093 225.188 175.819 225.831 177.62 226.122C179.42 226.413 181.26 226.346 183.035 225.925C184.81 225.504 186.484 224.737 187.962 223.668C189.442 222.602 190.696 221.254 191.654 219.702C192.612 218.149 193.255 216.424 193.546 214.623C193.837 212.823 193.77 210.982 193.349 209.208C192.928 207.433 192.161 205.759 191.092 204.28L190.748 203.803C189.429 201.933 188.701 199.712 188.656 197.424C188.612 195.137 189.254 192.888 190.5 190.969C191.696 189.083 193.417 187.588 195.451 186.667C197.486 185.747 199.745 185.441 201.951 185.789L202.567 185.888C206.201 186.475 209.92 185.594 212.904 183.439C215.888 181.284 217.895 178.032 218.481 174.398C219.068 170.764 218.187 167.046 216.032 164.062C213.878 161.077 210.626 159.071 206.992 158.484L205.827 158.296C203.624 157.932 201.575 156.931 199.934 155.417C198.292 153.903 197.129 151.942 196.588 149.775L196.677 149.227C196.098 147.014 196.196 144.678 196.958 142.52C197.72 140.363 199.11 138.483 200.95 137.124L201.428 136.779C202.907 135.712 204.162 134.364 205.12 132.812C206.078 131.26 206.721 129.534 207.011 127.734C207.302 125.933 207.235 124.093 206.814 122.318C206.393 120.543 205.626 118.869 204.558 117.391C203.491 115.911 202.143 114.657 200.591 113.699C199.039 112.741 197.313 112.098 195.513 111.807C193.712 111.517 191.872 111.584 190.097 112.005C188.322 112.426 186.648 113.192 185.17 114.261L184.692 114.605C182.823 115.924 180.601 116.653 178.314 116.697C176.026 116.741 173.778 116.099 171.859 114.853C169.973 113.658 168.477 111.937 167.557 109.902C166.636 107.868 166.331 105.608 166.678 103.402L166.778 102.786C167.364 99.1518 166.483 95.4337 164.329 92.4492" stroke="#376FE6" stroke-width="8.56936" stroke-linecap="round" stroke-linejoin="round"/>
<path d="M124.751 182.283C128.087 184.134 131.816 185.164 135.629 185.286C139.442 185.408 143.229 184.618 146.677 182.984C150.124 181.349 153.131 178.916 155.45 175.886C157.769 172.856 159.331 169.317 160.008 165.562C160.685 161.808 160.457 157.946 159.343 154.297C158.229 150.648 156.261 147.318 153.602 144.582C150.943 141.846 147.67 139.783 144.054 138.566C140.439 137.348 136.585 137.01 132.813 137.579L134.246 147.069C136.509 146.727 138.822 146.93 140.991 147.661C143.16 148.392 145.124 149.629 146.719 151.271C148.315 152.912 149.496 154.911 150.164 157.1C150.833 159.289 150.969 161.606 150.563 163.859C150.157 166.112 149.219 168.235 147.828 170.053C146.437 171.871 144.632 173.331 142.564 174.312C140.496 175.293 138.223 175.766 135.936 175.693C133.648 175.62 131.41 175.002 129.409 173.891L124.751 182.283Z" fill="#FFFF98"/>
</g>
<defs>
<filter id="filter0_d_2598_1401" x="0.866497" y="0.559949" width="230.21" height="269.218" filterUnits="userSpaceOnUse" color-interpolation-filters="sRGB">
<feFlood flood-opacity="0" result="BackgroundImageFix"/>
<feColorMatrix in="SourceAlpha" type="matrix" values="0 0 0 0 0 0 0 0 0 0 0 0 0 0 0 0 0 0 127 0" result="hardAlpha"/>
<feOffset dy="5.69345"/>
<feGaussianBlur stdDeviation="4.06675"/>
<feComposite in2="hardAlpha" operator="out"/>
<feColorMatrix type="matrix" values="0 0 0 0 0 0 0 0 0 0 0 0 0 0 0 0 0 0 0.25 0"/>
<feBlend mode="normal" in2="BackgroundImageFix" result="effect1_dropShadow_2598_1401"/>
<feBlend mode="normal" in="SourceGraphic" in2="effect1_dropShadow_2598_1401" result="shape"/>
</filter>
</defs>
</svg>
