<svg width="199" height="211" viewBox="0 0 199 211" fill="none" xmlns="http://www.w3.org/2000/svg">
<g filter="url(#filter0_d_2364_125)">
<path d="M56.1705 16.6728C56.8102 13.7234 59.4198 11.6191 62.4378 11.6191H186.093C190.176 11.6191 193.219 15.3835 192.364 19.3756L155.488 191.514C154.865 194.422 152.324 196.52 149.351 196.582L24.6676 199.192C20.524 199.279 17.3875 195.471 18.2661 191.421L56.1705 16.6728Z" fill="#6C9BFF"/>
<path d="M49.7574 11.8622C50.3971 8.91284 53.0067 6.80859 56.0247 6.80859H179.68C183.763 6.80859 186.806 10.5729 185.951 14.565L149.075 186.704C148.452 189.612 145.911 191.71 142.938 191.772L18.2545 194.382C14.1109 194.468 10.9744 190.661 11.853 186.61L49.7574 11.8622Z" fill="#376FE6"/>
<path d="M44.6269 7.05364C45.2666 4.10424 47.8762 2 50.8942 2H174.55C178.632 2 181.676 5.76432 180.82 9.75644L143.944 181.895C143.321 184.803 140.781 186.901 137.808 186.963L13.124 189.573C8.9804 189.66 5.84395 185.852 6.7225 181.802L44.6269 7.05364Z" fill="#6C9BFF"/>
<path d="M57.9493 28.3372C61.6576 28.3372 65.0526 26.0174 68.8345 26.9629C70.9226 27.4849 72.6662 28.7649 74.8818 28.832C78.8145 28.9512 82.2308 28.0897 86.0419 27.3752C89.3976 26.746 92.0021 27.2196 95.3328 27.3477C98.2582 27.4602 101.08 29.2502 103.936 29.8216C113.042 31.6427 121.789 29.6983 130.792 28.7221C133.854 28.3901 136.89 27.4162 139.973 27.3477C141.385 27.3163 142.941 26.646 144.316 26.9079C146.499 27.3236 148.36 30.1308 150.253 31.3059C152.168 32.4944 154.209 33.3396 156.411 33.7798" stroke="black" stroke-width="1.60327" stroke-linecap="round"/>
<path d="M57.4545 52.5817C60.9962 50.2206 66.8128 49.398 70.9235 48.7334C74.5123 48.1532 78.7589 47.364 81.8087 49.8329C84.5776 52.0744 86.6053 54.5811 90.3299 55.0556C92.5222 55.3349 95.8906 56.1623 98.1365 55.4404C104.818 53.2928 112.307 53.5713 119.302 53.5713C122.299 53.5713 125.002 53.3602 127.823 54.5608C130.645 55.7617 131.9 59.0139 135.025 59.0139C138.109 59.0139 146.714 57.5362 147.505 61.4878" stroke="black" stroke-width="1.60327" stroke-linecap="round"/>
<path d="M54.9806 78.3098C60.1222 75.9532 65.8831 75.2789 71.1984 73.3619C74.2453 72.2631 76.7638 71.3828 79.967 71.3828C81.4814 71.3828 82.2979 72.757 83.1556 73.8292C84.7945 75.8779 86.61 77.3553 89.2304 77.9249C91.9997 78.5269 93.9964 79.9074 96.7621 80.2889C99.7558 80.7018 102.641 81.7054 105.558 82.158C109.012 82.694 117.003 82.1866 118.313 78.5846C119.408 75.5718 122.131 78.17 123.26 79.2993C125.644 81.6833 133.286 80.2889 136.619 80.2889" stroke="black" stroke-width="1.60327" stroke-linecap="round"/>
<path d="M49.0432 104.533C49.5669 104.067 49.9439 104.038 50.6375 104.038C53.9569 104.038 57.1707 102.738 60.3682 102.004C62.3255 101.554 68.9738 99.7206 71.061 101.344C73.7278 103.418 76.5374 103.449 79.7196 104.148C81.3996 104.517 82.7763 105.329 84.4476 105.797C86.9376 106.494 93.5041 107.816 94.6181 104.752C95.9977 100.959 103.67 106.514 105.201 107.446C107.228 108.68 109.992 110.47 112.375 110.47C114.74 110.47 116.372 107.996 118.807 107.996C122.544 107.996 126.547 107.748 129.912 106.017C131.278 105.315 135.63 101.665 135.63 105.027" stroke="black" stroke-width="1.60327" stroke-linecap="round"/>
<path d="M48.0536 129.768C48.0536 133.513 55.662 131.747 58.4441 131.747C59.9312 131.747 60.9353 132.325 62.3748 132.736C66.3101 133.861 70.4215 133.726 74.4695 133.726C75.7283 133.726 76.6559 134.297 77.8505 134.605C80.6324 135.323 83.6001 134.267 86.3167 133.836C88.3568 133.512 90.6777 133.559 92.6389 132.929C94.759 132.247 96.2453 131.252 98.5213 131.252C101.939 131.252 105.117 129.768 108.444 129.768C111.916 129.768 115.229 129.768 118.697 129.768C122.831 129.768 124.013 131.533 126.724 133.973C128.63 135.689 129.521 135.705 132.166 135.705" stroke="black" stroke-width="1.60327" stroke-linecap="round"/>
<path d="M40.5927 153.027C40.5927 156.773 48.201 155.006 50.9831 155.006C52.4702 155.006 53.4743 155.585 54.9138 155.996C58.8491 157.12 62.9605 156.986 67.0085 156.986C68.2673 156.986 69.1949 157.557 70.3895 157.865C73.1714 158.583 76.1391 157.527 78.8557 157.096C80.8958 156.772 83.2167 156.819 85.1779 156.188C87.298 155.507 88.7843 154.512 91.0603 154.512C94.4779 154.512 97.6558 153.027 100.983 153.027C104.455 153.027 107.768 153.027 111.236 153.027C115.37 153.027 116.552 154.793 119.263 157.233C121.169 158.948 122.06 158.965 124.705 158.965" stroke="black" stroke-width="1.60327" stroke-linecap="round"/>
<g filter="url(#filter1_d_2364_125)">
<rect x="78.0383" y="156.175" width="72.6654" height="42.4807" transform="rotate(-15.045 78.0383 156.175)" fill="#FFFF98" stroke="#6C9BFF" stroke-width="1.60327"/>
<rect x="104.289" y="138.053" width="11.1365" height="36.2708" transform="rotate(-13.9631 104.289 138.053)" fill="#FFFF98" stroke="#6C9BFF" stroke-width="1.60327"/>
<path d="M106.946 127.006C111.205 126.269 115.167 126.445 118.118 127.29C121.128 128.152 122.815 129.615 123.097 131.245C123.379 132.875 122.282 134.82 119.738 136.644C117.243 138.432 113.57 139.93 109.311 140.667C105.052 141.405 101.091 141.229 98.1401 140.384C95.13 139.522 93.4434 138.059 93.1608 136.429C92.8786 134.799 93.9751 132.854 96.5202 131.03C99.0149 129.242 102.687 127.744 106.946 127.006Z" fill="#FFFF98" stroke="#6C9BFF" stroke-width="1.60327"/>
</g>
</g>
<defs>
<filter id="filter0_d_2364_125" x="0.161045" y="0.0760751" width="198.761" height="210.02" filterUnits="userSpaceOnUse" color-interpolation-filters="sRGB">
<feFlood flood-opacity="0" result="BackgroundImageFix"/>
<feColorMatrix in="SourceAlpha" type="matrix" values="0 0 0 0 0 0 0 0 0 0 0 0 0 0 0 0 0 0 127 0" result="hardAlpha"/>
<feOffset dy="4.48916"/>
<feGaussianBlur stdDeviation="3.20654"/>
<feComposite in2="hardAlpha" operator="out"/>
<feColorMatrix type="matrix" values="0 0 0 0 0 0 0 0 0 0 0 0 0 0 0 0 0 0 0.25 0"/>
<feBlend mode="normal" in2="BackgroundImageFix" result="effect1_dropShadow_2364_125"/>
<feBlend mode="normal" in="SourceGraphic" in2="effect1_dropShadow_2364_125" result="shape"/>
</filter>
<filter id="filter1_d_2364_125" x="71.6691" y="122.918" width="93.9401" height="83.2154" filterUnits="userSpaceOnUse" color-interpolation-filters="sRGB">
<feFlood flood-opacity="0" result="BackgroundImageFix"/>
<feColorMatrix in="SourceAlpha" type="matrix" values="0 0 0 0 0 0 0 0 0 0 0 0 0 0 0 0 0 0 127 0" result="hardAlpha"/>
<feOffset dy="2.56523"/>
<feGaussianBlur stdDeviation="2.69349"/>
<feComposite in2="hardAlpha" operator="out"/>
<feColorMatrix type="matrix" values="0 0 0 0 0 0 0 0 0 0 0 0 0 0 0 0 0 0 0.25 0"/>
<feBlend mode="normal" in2="BackgroundImageFix" result="effect1_dropShadow_2364_125"/>
<feBlend mode="normal" in="SourceGraphic" in2="effect1_dropShadow_2364_125" result="shape"/>
</filter>
</defs>
</svg>
