<svg width="276" height="210" viewBox="0 0 276 210" fill="none" xmlns="http://www.w3.org/2000/svg">
<g clip-path="url(#clip0_3063_23)">
<g filter="url(#filter0_d_3063_23)">
<path d="M195.342 137.804L79.0627 123.401C81.7548 111.358 85.8234 95.5756 93.0024 84.5097C99.9034 73.8724 108.407 64.4866 114.729 57.4322C123.298 64.9948 144.287 72.7597 169.668 76.9847C201.244 82.2407 228.691 80.2 234.683 72.6084L236.176 72.8335L195.342 137.804Z" fill="#6C9BFF"/>
<path d="M198.344 142.568L14.9215 144.508C23.6884 141.77 36.5725 128.151 46.9497 109.735C55.4207 94.7016 60.1257 80.1888 60.1851 70.8465L60.2203 70.8478C70.0106 78.5795 104.733 84.8261 146.104 85.6276C190.912 86.4956 228.012 80.6759 234.114 72.2983L236.227 72.3162L198.344 142.568Z" fill="#FFFF98"/>
<path d="M207.421 145.519L39.6045 164.163C46.9737 160.754 56.2271 148.596 62.8408 132.632C68.3452 119.345 70.6884 106.63 69.707 98.3447H74.0859V86.7686L74.2207 86.7568C83.8875 93.5585 116.374 96.5964 154.519 93.6035C195.834 90.3618 229.487 81.1672 234.393 72.2656L236.338 72.0898L207.421 145.519Z" fill="#6C9BFF"/>
<path d="M249.499 107.585C253.852 106.917 257.803 109.862 257.817 114.176C257.862 128.511 254.009 142.838 246.603 155.589C237.852 170.656 224.61 182.712 208.863 189.948C193.116 197.185 175.711 199.213 159.256 195.729C145.308 192.775 132.68 185.995 122.705 176.194C119.707 173.247 120.278 168.343 123.631 165.497V165.497C127.076 162.574 132.129 162.947 135.302 165.879C143.065 173.049 152.677 178.024 163.234 180.26C176.398 183.047 190.322 181.425 202.92 175.635C215.518 169.846 226.111 160.202 233.112 148.148C238.794 138.365 241.861 127.423 242.072 116.428C242.153 112.172 245.209 108.244 249.499 107.585V107.585Z" fill="#376FE6"/>
<path d="M248.377 80.891L272.68 111.098L230.349 115.214L248.377 80.891Z" fill="#376FE6"/>
<path d="M25.8939 98.4547C21.5167 98.9381 17.6935 95.8283 17.8626 91.5175C18.4942 75.4157 24.0446 59.574 33.8607 46.1739C45.2626 30.6089 61.6652 19.3684 80.095 14.49C98.5248 9.61151 117.762 11.4181 134.319 19.5821C148.615 26.6308 160.095 38.0159 167.27 52.106C169.169 55.8352 167.125 60.3745 163.105 62.1005V62.1005C158.985 63.87 154.374 62.0034 152.314 58.2415C146.538 47.6943 137.683 39.1685 126.783 33.7939C113.537 27.2627 98.1477 25.8175 83.4039 29.7202C68.66 33.623 55.538 42.6154 46.4164 55.0674C38.8499 65.3966 34.4515 77.5392 33.6889 89.9341C33.4275 94.1828 30.2087 97.9781 25.8939 98.4547V98.4547Z" fill="#376FE6"/>
<path d="M27.0012 123.014L3.9983 91.8059L46.4651 89.4844L27.0012 123.014Z" fill="#376FE6"/>
</g>
</g>
<defs>
<filter id="filter0_d_3063_23" x="-2.41479" y="9.88076" width="281.508" height="198.412" filterUnits="userSpaceOnUse" color-interpolation-filters="sRGB">
<feFlood flood-opacity="0" result="BackgroundImageFix"/>
<feColorMatrix in="SourceAlpha" type="matrix" values="0 0 0 0 0 0 0 0 0 0 0 0 0 0 0 0 0 0 127 0" result="hardAlpha"/>
<feOffset dy="4.48916"/>
<feGaussianBlur stdDeviation="3.20654"/>
<feComposite in2="hardAlpha" operator="out"/>
<feColorMatrix type="matrix" values="0 0 0 0 0 0 0 0 0 0 0 0 0 0 0 0 0 0 0.25 0"/>
<feBlend mode="normal" in2="BackgroundImageFix" result="effect1_dropShadow_3063_23"/>
<feBlend mode="normal" in="SourceGraphic" in2="effect1_dropShadow_3063_23" result="shape"/>
</filter>
<clipPath id="clip0_3063_23">
<rect width="276" height="210" fill="white"/>
</clipPath>
</defs>
</svg>
