<svg width="315" height="166" viewBox="0 0 315 166" fill="none" xmlns="http://www.w3.org/2000/svg">
<g filter="url(#filter0_d_2598_431)">
<path d="M165.322 33.6313C128.886 59.3296 131.014 90.7776 131.367 117.726L141.031 117.149L140.984 105.114C143.443 104.978 145.917 104.627 147.523 103.956C196.612 83.4552 178.317 1.9998 178.317 1.9998C177.582 12.7887 146.81 26.9501 126.36 40.7311C105.911 54.5122 104.906 77.2056 108.634 86.1308C112.361 95.056 123.432 99.6042 123.432 99.6042C120.696 52.2681 165.322 33.6313 165.322 33.6313Z" fill="#FFFF98"/>
<path d="M63.338 51.3872C83.8815 74.3234 77.5811 95.159 73.1716 113.241L66.7567 111.356L68.6514 103.264C67.0176 102.792 65.4073 102.172 64.4299 101.472C34.5663 80.0753 59.4894 28.087 59.4894 28.087C58.314 35.4619 76.8318 49.7568 88.461 62.1974C100.09 74.6381 97.253 90.0666 93.3627 95.4964C89.4724 100.926 81.3173 102.273 81.3173 102.273C90.4867 70.8388 63.338 51.3872 63.338 51.3872Z" fill="#FFFF98"/>
<circle cx="240.452" cy="94.7669" r="11.5774" fill="#6C9BFF"/>
<path d="M307.859 89.4299C295.508 102.933 273.979 109.038 259.872 113.325C182.46 136.852 192.492 109.536 227.048 76.9397C227.858 76.1752 228.655 75.3755 229.444 74.5477C215.083 83.0436 198.466 92.4228 179.338 102.82C137.659 125.477 51.5266 114.577 7.34373 95.1417C19.6215 128.048 79.9483 153.315 152.673 153.748C223.218 154.168 290.566 122.945 307.859 89.4299Z" fill="#376FE6"/>
</g>
<defs>
<filter id="filter0_d_2598_431" x="0.676737" y="-0.000103951" width="313.849" height="165.086" filterUnits="userSpaceOnUse" color-interpolation-filters="sRGB">
<feFlood flood-opacity="0" result="BackgroundImageFix"/>
<feColorMatrix in="SourceAlpha" type="matrix" values="0 0 0 0 0 0 0 0 0 0 0 0 0 0 0 0 0 0 127 0" result="hardAlpha"/>
<feOffset dy="4.66691"/>
<feGaussianBlur stdDeviation="3.33351"/>
<feComposite in2="hardAlpha" operator="out"/>
<feColorMatrix type="matrix" values="0 0 0 0 0 0 0 0 0 0 0 0 0 0 0 0 0 0 0.25 0"/>
<feBlend mode="normal" in2="BackgroundImageFix" result="effect1_dropShadow_2598_431"/>
<feBlend mode="normal" in="SourceGraphic" in2="effect1_dropShadow_2598_431" result="shape"/>
</filter>
</defs>
</svg>
