<svg width="252" height="232" viewBox="0 0 252 232" fill="none" xmlns="http://www.w3.org/2000/svg">
<g clip-path="url(#clip0_2312_862)">
<g filter="url(#filter0_d_2312_862)">
<path d="M153.906 152.925C153.145 165.682 151.981 177.582 150.488 188.266C142.76 190.889 134.477 192.314 125.863 192.314C118.33 192.314 111.052 191.224 104.176 189.197C102.62 178.276 101.41 166.054 100.626 152.925H153.906ZM78.6809 152.925C79.5751 162.147 80.8473 170.838 82.4407 178.815C72.7459 172.127 64.668 163.262 58.9163 152.925H78.6809ZM192.808 152.925C187.715 162.077 180.8 170.075 172.553 176.431C173.931 169.116 175.046 161.236 175.852 152.925H192.808ZM78.386 92.5254C77.6011 101.627 77.1799 111.212 77.1799 121.109C77.1799 125.658 77.2688 130.141 77.4407 134.542H51.6262C50.1099 128.531 49.303 122.238 49.303 115.756C49.303 107.657 50.5624 99.8521 52.8928 92.5254H78.386ZM154.414 92.5254C154.752 100.647 154.931 109.058 154.931 117.675C154.931 123.396 154.853 129.026 154.701 134.542H99.8313C99.6801 129.026 99.6018 123.396 99.6018 117.675C99.6018 109.058 99.782 100.647 100.119 92.5254H154.414ZM198.831 92.5254C201.162 99.8522 202.421 107.657 202.421 115.756C202.421 122.238 201.614 128.531 200.098 134.542H177.092C177.264 130.141 177.353 125.658 177.353 121.109C177.353 111.212 176.932 101.627 176.147 92.5254H198.831ZM85.3938 50.7568C83.4796 57.8103 81.8503 65.6658 80.5579 74.1436H61.5901C67.709 64.712 75.8484 56.7127 85.3938 50.7568ZM125.863 39.1973C134.257 39.1973 142.337 40.549 149.895 43.0459C151.327 52.46 152.495 62.9158 153.344 74.1436H101.189C102.065 62.5544 103.279 51.7873 104.775 42.1396C111.474 40.2241 118.548 39.1973 125.863 39.1973ZM169.73 53.0049C177.814 58.6674 184.755 65.852 190.134 74.1436H173.975C172.818 66.5557 171.389 59.4668 169.73 53.0049Z" fill="#6C9BFF"/>
<path d="M207.876 41.0051C210.256 40.3672 212.686 41.7703 213.299 44.1361L217.504 59.8318L244.143 67.9813L245.693 73.6852L220.957 72.6372L225.174 88.3733L232.024 91.1003L233.155 95.4028L222.421 95.2085L213.182 100.754L211.985 96.448L216.624 90.5994L212.44 74.9843L191.465 88.2158L189.955 82.5011L208.95 62.1238L204.745 46.4281C204.088 44.139 205.565 41.581 207.876 41.0051Z" fill="#FFFF98"/>
<path d="M183.155 43.1384C186.67 38.6781 185.928 32.1638 181.139 29.1115C164.723 18.6485 145.605 13.0213 125.998 12.9978C102.949 12.9702 80.5597 20.6872 62.4229 34.9101C44.2861 49.133 31.4537 69.0371 25.9855 91.4276C20.5173 113.818 22.7304 137.397 32.2694 158.378C41.8085 179.36 58.1205 196.529 78.5871 207.129C99.0537 217.728 122.488 221.144 145.129 216.828C167.77 212.512 188.304 200.715 203.436 183.329C216.309 168.539 224.637 150.434 227.545 131.185C228.394 125.57 223.973 120.728 218.301 120.445C212.63 120.161 207.867 124.55 206.879 130.142C204.291 144.783 197.768 158.517 187.924 169.828C175.818 183.736 159.391 193.174 141.278 196.627C123.165 200.08 104.418 197.347 88.0446 188.867C71.6713 180.388 58.6217 166.653 50.9905 149.867C43.3592 133.082 41.5888 114.219 45.9633 96.3066C50.3379 78.3942 60.6038 62.4709 75.1132 51.0926C89.6227 39.7142 107.534 33.5407 125.973 33.5628C140.968 33.5807 155.605 37.6954 168.338 45.3703C173.202 48.3018 179.64 47.5986 183.155 43.1384Z" fill="#376FE6"/>
</g>
</g>
<defs>
<filter id="filter0_d_2312_862" x="16.5652" y="11.0527" width="235.613" height="218.618" filterUnits="userSpaceOnUse" color-interpolation-filters="sRGB">
<feFlood flood-opacity="0" result="BackgroundImageFix"/>
<feColorMatrix in="SourceAlpha" type="matrix" values="0 0 0 0 0 0 0 0 0 0 0 0 0 0 0 0 0 0 127 0" result="hardAlpha"/>
<feOffset dy="4.53922"/>
<feGaussianBlur stdDeviation="3.2423"/>
<feComposite in2="hardAlpha" operator="out"/>
<feColorMatrix type="matrix" values="0 0 0 0 0 0 0 0 0 0 0 0 0 0 0 0 0 0 0.25 0"/>
<feBlend mode="normal" in2="BackgroundImageFix" result="effect1_dropShadow_2312_862"/>
<feBlend mode="normal" in="SourceGraphic" in2="effect1_dropShadow_2312_862" result="shape"/>
</filter>
<clipPath id="clip0_2312_862">
<rect width="251.108" height="231.509" fill="white"/>
</clipPath>
</defs>
</svg>
