<svg width="271" height="264" viewBox="0 0 271 264" fill="none" xmlns="http://www.w3.org/2000/svg">
<g filter="url(#filter0_d_2598_1324)">
<path d="M31.4395 61.8301C33.2238 99.6921 54.6495 131.396 83.9404 143.101C89.9837 180.632 109.292 212.198 135.522 229.899C71.5444 228.863 20 176.678 20 112.453C20.0001 94.3265 24.107 77.1594 31.4395 61.8301Z" fill="#6C9BFF"/>
<path d="M239.561 61.8281C237.777 99.6905 216.351 131.395 187.06 143.1C181.017 180.63 161.709 212.195 135.48 229.896C199.457 228.858 251 176.675 251 112.451C251 94.3246 246.893 77.1575 239.561 61.8281Z" fill="#6C9BFF"/>
<circle cx="67.7195" cy="91.4978" r="17.7419" fill="#FFFF98"/>
<circle cx="203.843" cy="91.4978" r="17.7419" fill="#FFFF98"/>
<circle cx="135.781" cy="109.24" r="17.7419" fill="#FFFF98"/>
<path d="M131.627 223.798C132.999 223.877 134.379 223.931 135.766 223.954C135.764 223.955 135.762 223.957 135.761 223.958C137.082 223.937 138.398 223.887 139.706 223.814C138.402 223.919 137.086 223.973 135.761 223.973C134.372 223.973 132.993 223.913 131.627 223.798ZM170.268 83.8477C171.353 84.7865 172.413 85.7671 173.446 86.79C178.139 99.9941 180.747 114.604 180.747 129.971C180.747 170.558 162.563 205.859 135.781 223.943C108.999 205.859 90.8146 170.557 90.8145 129.97C90.8145 114.579 93.4301 99.9491 98.1367 86.7295C98.9847 85.8918 99.8512 85.082 100.734 84.3008C99.6554 89.3721 99.0742 94.7674 99.0742 100.362C99.0743 130.011 115.406 154.047 135.552 154.047C155.698 154.047 172.03 130.011 172.03 100.362C172.03 94.6001 171.409 89.0506 170.268 83.8477Z" fill="#376FE6"/>
<path d="M134.604 57.6198C137.619 57.6198 140.096 55.1674 139.759 52.1706C138.447 40.4833 132.943 29.5066 124.071 21.1191C113.831 11.4385 99.9431 6 85.4617 6C70.9803 6 57.0919 11.4385 46.852 21.1191C37.9799 29.5066 32.4763 40.4833 31.1643 52.1706C30.8279 55.1674 33.304 57.6198 36.3196 57.6198C39.3352 57.6198 41.7408 55.1633 42.1607 52.1771C43.4184 43.2337 47.7511 34.8694 54.574 28.4192C62.7659 20.6748 73.8765 16.324 85.4617 16.324C97.0468 16.324 108.157 20.6748 116.349 28.4192C123.172 34.8694 127.505 43.2337 128.763 52.1771C129.183 55.1633 131.588 57.6198 134.604 57.6198Z" fill="#FFFF98"/>
<path d="M235.243 57.6198C238.259 57.6198 240.735 55.1674 240.399 52.1706C239.087 40.4833 233.583 29.5066 224.711 21.1191C214.471 11.4385 200.583 6 186.101 6C171.62 6 157.732 11.4385 147.492 21.1191C138.62 29.5066 133.116 40.4833 131.804 52.1706C131.468 55.1674 133.944 57.6198 136.959 57.6198C139.975 57.6198 142.38 55.1633 142.8 52.1771C144.058 43.2337 148.391 34.8694 155.214 28.4192C163.406 20.6748 174.516 16.324 186.101 16.324C197.686 16.324 208.797 20.6748 216.989 28.4192C223.812 34.8694 228.145 43.2337 229.402 52.1771C229.822 55.1633 232.228 57.6198 235.243 57.6198Z" fill="#FFFF98"/>
</g>
<defs>
<filter id="filter0_d_2598_1324" x="0" y="0" width="271" height="263.898" filterUnits="userSpaceOnUse" color-interpolation-filters="sRGB">
<feFlood flood-opacity="0" result="BackgroundImageFix"/>
<feColorMatrix in="SourceAlpha" type="matrix" values="0 0 0 0 0 0 0 0 0 0 0 0 0 0 0 0 0 0 127 0" result="hardAlpha"/>
<feOffset dy="14"/>
<feGaussianBlur stdDeviation="10"/>
<feComposite in2="hardAlpha" operator="out"/>
<feColorMatrix type="matrix" values="0 0 0 0 0 0 0 0 0 0 0 0 0 0 0 0 0 0 0.25 0"/>
<feBlend mode="normal" in2="BackgroundImageFix" result="effect1_dropShadow_2598_1324"/>
<feBlend mode="normal" in="SourceGraphic" in2="effect1_dropShadow_2598_1324" result="shape"/>
</filter>
</defs>
</svg>
