<svg width="267" height="217" viewBox="0 0 267 217" fill="none" xmlns="http://www.w3.org/2000/svg">
<g clip-path="url(#clip0_2598_903)">
<g filter="url(#filter0_d_2598_903)">
<path d="M58.8764 175.75C40.969 160.601 38.7068 111.535 59.6005 114.53C70.4854 116.994 78.7643 117.021 85.2388 115.707C78.6116 121.47 73.3687 126.504 71.2655 128.99C63.8667 137.736 64.9587 150.825 73.7048 158.224C82.451 165.622 97.9642 166.104 102.939 155.784C115.233 130.277 124.081 118.413 129.725 111.806C131.288 122.594 120.16 135.417 120.456 165.764C120.655 186.242 76.7842 190.9 58.8764 175.75Z" fill="#6C9BFF"/>
<circle cx="48.1406" cy="183.548" r="22.8974" fill="#FFFF98"/>
<path d="M203.167 170.028C189.944 189.402 141.374 196.712 142.197 175.621C143.526 164.54 142.699 156.302 140.724 149.998C147.14 155.995 152.687 160.692 155.377 162.527C164.839 168.985 177.745 166.549 184.203 157.086C190.66 147.624 189.54 132.144 178.762 128.26C152.123 118.661 139.41 111.084 132.256 106.151C142.825 103.484 156.728 113.23 186.884 109.807C207.231 107.497 216.389 150.654 203.167 170.028Z" fill="#6C9BFF"/>
<circle cx="212.028" cy="179.903" r="22.8974" transform="rotate(-95.9189 212.028 179.903)" fill="#FFFF98"/>
<path d="M196.163 27.844C215.213 41.5286 221.352 90.261 200.287 88.93C189.24 87.3349 180.985 87.9649 174.634 89.7876C180.785 83.5175 185.614 78.0847 187.514 75.4397C194.197 66.1353 192.072 53.1744 182.768 46.4909C173.464 39.8074 157.961 40.5554 153.819 51.2364C143.583 77.6356 135.702 90.1625 130.598 97.196C128.187 86.5655 138.264 72.9016 135.567 42.6728C133.748 22.2756 177.112 14.1596 196.163 27.844Z" fill="#6C9BFF"/>
<circle cx="207.462" cy="25.1369" r="22.8974" transform="rotate(-95.9189 207.462 25.1369)" fill="#FFFF98"/>
<path d="M49.4541 40.442C61.111 20.0875 108.957 8.97889 109.795 30.0694C109.342 41.221 110.815 49.368 113.28 55.4977C106.412 50.0233 100.513 45.7777 97.6867 44.1593C87.7454 38.4661 75.071 41.9098 69.3777 51.851C63.6845 61.7922 66.0196 77.1363 77.0694 80.1599C104.381 87.6332 117.65 94.1872 125.17 98.542C114.844 102.033 100.218 93.4097 70.4244 99.1949C50.3216 103.098 37.7976 60.7967 49.4541 40.442Z" fill="#6C9BFF"/>
<circle cx="39.8438" cy="31.2973" r="22.8974" transform="rotate(79.5693 39.8438 31.2973)" fill="#FFFF98"/>
<circle cx="129.416" cy="102.322" r="15.9253" fill="#376FE6"/>
</g>
</g>
<defs>
<filter id="filter0_d_2598_903" x="9.62039" y="0.0416851" width="232.629" height="218.851" filterUnits="userSpaceOnUse" color-interpolation-filters="sRGB">
<feFlood flood-opacity="0" result="BackgroundImageFix"/>
<feColorMatrix in="SourceAlpha" type="matrix" values="0 0 0 0 0 0 0 0 0 0 0 0 0 0 0 0 0 0 127 0" result="hardAlpha"/>
<feOffset dy="5.12539"/>
<feGaussianBlur stdDeviation="3.66099"/>
<feComposite in2="hardAlpha" operator="out"/>
<feColorMatrix type="matrix" values="0 0 0 0 0 0 0 0 0 0 0 0 0 0 0 0 0 0 0.25 0"/>
<feBlend mode="normal" in2="BackgroundImageFix" result="effect1_dropShadow_2598_903"/>
<feBlend mode="normal" in="SourceGraphic" in2="effect1_dropShadow_2598_903" result="shape"/>
</filter>
<clipPath id="clip0_2598_903">
<rect width="266.886" height="216.365" fill="white"/>
</clipPath>
</defs>
</svg>
