<svg width="292" height="240" viewBox="0 0 292 240" fill="none" xmlns="http://www.w3.org/2000/svg">
<g filter="url(#filter0_d_2598_871)">
<path d="M196.037 30.3242C176.682 43.9429 165.613 63.4087 159.912 76.7607C143.853 114.373 173.901 127.545 230.766 107.229C216.02 125.709 201.969 151.17 194.83 177.891C189.871 196.451 189.202 212.951 191.24 227.131C159.869 216.526 136.556 176.803 136.556 129.417C136.556 79.6457 162.275 38.3257 196.037 30.3242Z" fill="#6C9BFF"/>
<path d="M47.24 192.45C40.1441 169.875 43.1797 147.69 46.7646 133.622C56.8634 93.9913 88.7316 101.786 121.552 152.472C121.069 128.836 125.379 100.076 135.945 74.516C143.284 56.7614 152.778 43.2496 163.013 33.2256C131.654 22.5875 89.0007 39.973 60.209 77.6082C29.9685 117.137 25.2893 165.581 47.24 192.45Z" fill="#6C9BFF"/>
<ellipse cx="187.363" cy="86.396" rx="15.6619" ry="16.1031" fill="#376FE6"/>
<ellipse cx="71.6756" cy="139.113" rx="15.6619" ry="16.1031" fill="#376FE6"/>
<path d="M124.816 197.074C121.625 198.138 118.287 198.762 114.912 198.921C116.037 186.045 111.06 173.953 102.293 165.614C115.315 169.404 124.84 181.436 124.84 195.68C124.84 196.145 124.828 196.61 124.816 197.074ZM124.339 201.317C123.63 205.23 122.187 208.898 120.157 212.163C108.236 218.093 93.5388 217.371 82.0208 209.167C84.9187 204.741 88.7947 200.889 93.5755 197.942C103.345 203.225 114.374 204.154 124.339 201.317ZM95.4829 194.531C95.1772 183.417 90.4576 173.415 83.0235 166.201C86.3003 165.015 89.8462 164.379 93.5388 164.379C93.8689 164.379 94.1868 164.379 94.5047 164.391C105.607 171.752 112.32 184.835 110.975 198.908C105.705 198.615 100.41 197.184 95.4707 194.519L95.4829 194.531ZM79.1108 167.9C81.6296 170.138 83.8427 172.718 85.6767 175.555C73.9631 181.02 65.9788 191.376 63.1299 203.127C62.543 200.742 62.2373 198.248 62.2373 195.68C62.2373 183.6 69.0845 173.121 79.1108 167.9ZM87.6209 178.966C90.0052 183.686 91.4113 188.98 91.5702 194.58C82.1064 200.4 75.7972 209.485 73.2662 219.523C70.3072 217.005 67.8129 213.948 65.9544 210.5C66.7736 197.209 74.7457 184.835 87.6086 178.966H87.6209ZM93.5388 226.982C87.3396 226.982 81.5562 225.185 76.6898 222.067C77.3745 218.765 78.4994 215.574 80.04 212.566C90.6287 219.964 103.577 221.7 115.181 218.301C109.556 223.681 101.939 226.982 93.5388 226.982Z" fill="#FFFF98"/>
<path d="M260.307 64.3465C260.722 62.7918 260.872 61.1822 261.074 59.6376C261.358 55.8457 260.836 52.2187 261.3 48.4435C262.357 39.6726 269.625 32.1154 278.326 30.2251C275.086 27.7565 271.18 26.4581 267.417 25.6843C253.686 22.8635 238.668 29.4234 231.214 41.8642C230.981 42.2632 230.747 42.6623 230.309 43.0121C229.568 43.604 228.504 43.6547 227.716 43.2199C226.782 42.7415 226.362 41.8001 226.408 40.752C226.421 40.4397 226.492 40.1303 226.618 39.8396C228.508 32.3194 234.951 26.2184 242.451 24.2757C233.535 22.5075 223.42 25.7386 216.442 32C214.913 33.5403 213.383 35.0807 212.138 36.9786C210.479 39.048 209.156 41.5399 208.148 43.941C205.117 52.106 205.788 61.52 210.16 68.7252C214.801 76.4067 222.056 82.7999 231.299 84.1476C241.642 85.6286 252.27 80.5513 257.517 71.3614L258.057 70.2393C259.063 68.3191 260.307 64.3465 260.307 64.3465ZM230.872 71.028C229.336 70.7638 227.267 69.9683 225.996 69.0674C221.742 66.5037 220.724 61.3569 221.237 57.436C225.268 60.5501 230.076 60.4898 233.621 58.7775C236.759 57.1775 238.154 54.3616 240.412 51.8672C242.596 49.4861 244.771 47.856 247.798 46.8769C247.01 48.5168 246.248 50.1893 245.859 51.7765C244.485 56.9698 246.141 62.0862 242.23 66.5906C241.862 67.0973 241.442 67.539 240.937 67.9426C238.25 70.2465 234.282 71.4981 230.872 71.028Z" fill="#FFFF98"/>
</g>
<defs>
<filter id="filter0_d_2598_871" x="26.2718" y="21.5983" width="259.376" height="217.98" filterUnits="userSpaceOnUse" color-interpolation-filters="sRGB">
<feFlood flood-opacity="0" result="BackgroundImageFix"/>
<feColorMatrix in="SourceAlpha" type="matrix" values="0 0 0 0 0 0 0 0 0 0 0 0 0 0 0 0 0 0 127 0" result="hardAlpha"/>
<feOffset dy="5.12539"/>
<feGaussianBlur stdDeviation="3.66099"/>
<feComposite in2="hardAlpha" operator="out"/>
<feColorMatrix type="matrix" values="0 0 0 0 0 0 0 0 0 0 0 0 0 0 0 0 0 0 0.25 0"/>
<feBlend mode="normal" in2="BackgroundImageFix" result="effect1_dropShadow_2598_871"/>
<feBlend mode="normal" in="SourceGraphic" in2="effect1_dropShadow_2598_871" result="shape"/>
</filter>
</defs>
</svg>
