<svg width="224" height="226" viewBox="0 0 224 226" fill="none" xmlns="http://www.w3.org/2000/svg">
<g filter="url(#filter0_d_2598_441)">
<rect x="50.4287" y="94.166" width="40.3565" height="80.1677" rx="11.8506" fill="#6C9BFF"/>
<rect x="131.142" y="94.166" width="40.3565" height="80.1677" rx="11.8506" fill="#6C9BFF"/>
<circle cx="69.7056" cy="73.4541" r="11.4658" fill="#FFFF98"/>
<circle cx="150.243" cy="73.4541" r="11.4658" fill="#FFFF98"/>
<circle cx="109.886" cy="79.999" r="11.4658" fill="#FFFF98"/>
<rect x="89.5884" y="100.227" width="42.6152" height="83.1571" rx="12.6166" fill="#6C9BFF"/>
<path d="M91.7068 5.02225C112.121 0.961627 133.281 3.04534 152.511 11.0105C171.74 18.9757 188.176 32.4641 199.74 49.7703C209.348 64.1501 215.234 80.6293 216.95 97.7312C217.53 103.514 212.764 108.238 206.952 108.238C201.14 108.238 196.496 103.508 195.771 97.741C194.146 84.8092 189.533 72.3801 182.239 61.4637C172.988 47.6189 159.839 36.8279 144.456 30.4558C129.072 24.0838 112.144 22.4164 95.8133 25.6648C79.4819 28.9133 64.4801 36.9316 52.7058 48.7058C40.9316 60.4801 32.9133 75.4819 29.6648 91.8133C26.4164 108.144 28.0838 125.072 34.4558 140.456C39.5437 152.739 47.4511 163.594 57.4783 172.181C61.0106 171.779 65.136 171.514 69.5105 171.22C74.4277 170.291 80.8104 168.463 87.9783 163.864C107.542 151.312 123.658 141.533 129.601 150.797C132.744 155.694 129.621 160.583 123.09 165.958C131.008 169.981 137.532 175.511 152.796 164.865C153.025 164.157 153.247 163.428 153.457 162.677C159.713 140.289 165.241 122.268 175.841 125.23C186.44 128.193 180.288 146.039 174.032 168.427C173.061 171.902 171.878 174.915 170.536 177.517C166.964 186.848 156.185 198.406 132.366 209.595C121.969 214.478 110.871 214.912 100.212 212.786C83.654 210.881 67.7237 205.063 53.7703 195.74C36.4641 184.176 22.9757 167.74 15.0105 148.511C7.04535 129.281 4.96163 108.121 9.02225 87.7068C13.0829 67.2927 23.1053 48.5408 37.823 33.823C52.5408 19.1053 71.2927 9.08289 91.7068 5.02225Z" fill="#376FE6"/>
</g>
<defs>
<filter id="filter0_d_2598_441" x="0.11853" y="0.935559" width="223.761" height="224.761" filterUnits="userSpaceOnUse" color-interpolation-filters="sRGB">
<feFlood flood-opacity="0" result="BackgroundImageFix"/>
<feColorMatrix in="SourceAlpha" type="matrix" values="0 0 0 0 0 0 0 0 0 0 0 0 0 0 0 0 0 0 127 0" result="hardAlpha"/>
<feOffset dy="4.81703"/>
<feGaussianBlur stdDeviation="3.44074"/>
<feComposite in2="hardAlpha" operator="out"/>
<feColorMatrix type="matrix" values="0 0 0 0 0 0 0 0 0 0 0 0 0 0 0 0 0 0 0.25 0"/>
<feBlend mode="normal" in2="BackgroundImageFix" result="effect1_dropShadow_2598_441"/>
<feBlend mode="normal" in="SourceGraphic" in2="effect1_dropShadow_2598_441" result="shape"/>
</filter>
</defs>
</svg>
