<svg width="128" height="183" viewBox="0 0 128 183" fill="none" xmlns="http://www.w3.org/2000/svg">
<g filter="url(#filter0_d_2598_1446)">
<path d="M30.1436 26.3183C28.5392 22.0967 41.0324 37.5625 53.3077 35.1327C56.7832 34.646 59.3535 34.2104 61.3467 33.8681C61.5218 33.818 61.6975 33.7677 61.8741 33.7206C78.7228 29.2279 96.1991 39.9014 100.908 57.5605C101.012 57.9487 101.106 58.3381 101.195 58.7265C99.5657 60.6366 97.7658 62.8858 95.7872 65.5048C87.5343 76.4282 99.1531 44.2931 74.9434 47.0273C63.9494 49.9591 52.2726 62.2389 55.9747 76.122C58.6462 86.1392 66.3647 95.2815 74.586 98.495C59.1739 100.279 44.1988 89.9757 39.8936 73.831C36.8555 62.4376 39.8746 50.9212 46.9239 42.9755C38.1503 40.4908 33.3272 34.6946 30.1436 26.3183Z" fill="white"/>
<circle cx="65.5779" cy="23.0252" r="7.67361" fill="white"/>
<rect x="48.9512" y="117.826" width="33.2523" height="11.6703" rx="5.83514" fill="white"/>
<path d="M34.9058 43.8281C30.1006 50.6775 27.2105 59.2115 27.2104 67.8643C27.2104 87.5534 42.1695 103.515 60.6226 103.515C77.7572 103.515 91.8758 89.7523 93.8062 72.0225C96.0878 71.8563 98.4496 70.9474 100.478 69.2861C103.2 67.0568 104.713 63.9727 104.839 61.0156C106.84 66.2495 107.943 71.9586 107.943 77.9365C107.943 103.188 88.3131 123.659 64.0991 123.659C39.885 123.659 20.2554 103.188 20.2554 77.9365C20.2555 64.3784 25.9167 52.201 34.9058 43.8281ZM100.686 52.7393C100.916 53.1021 101.141 53.4688 101.362 53.8389C101.036 53.6176 100.694 53.4217 100.339 53.25C100.454 53.0794 100.57 52.9099 100.686 52.7393Z" fill="white"/>
<rect x="51.3496" y="133.012" width="28.3764" height="6.22029" rx="3.11015" fill="white"/>
<rect x="54.7866" y="142.766" width="21.582" height="6.23481" rx="3.11741" fill="white"/>
<path d="M72.4468 17.1875H72.0581C71.1141 15.6629 68.5522 14.5694 65.5386 14.5693C62.5247 14.5693 59.9621 15.6628 59.0181 17.1875H58.6294V11.207L65.6743 12.3604L72.4468 11.207V17.1875Z" fill="white"/>
<path d="M65.561 11.8418L55.3996 8.91976H75.7225L65.561 11.8418Z" fill="white"/>
<path d="M65.561 6L55.3996 8.92203H75.7225L65.561 6Z" fill="white"/>
</g>
<defs>
<filter id="filter0_d_2598_1446" x="0.255371" y="0" width="127.688" height="183" filterUnits="userSpaceOnUse" color-interpolation-filters="sRGB">
<feFlood flood-opacity="0" result="BackgroundImageFix"/>
<feColorMatrix in="SourceAlpha" type="matrix" values="0 0 0 0 0 0 0 0 0 0 0 0 0 0 0 0 0 0 127 0" result="hardAlpha"/>
<feOffset dy="14"/>
<feGaussianBlur stdDeviation="10"/>
<feComposite in2="hardAlpha" operator="out"/>
<feColorMatrix type="matrix" values="0 0 0 0 0 0 0 0 0 0 0 0 0 0 0 0 0 0 0.25 0"/>
<feBlend mode="normal" in2="BackgroundImageFix" result="effect1_dropShadow_2598_1446"/>
<feBlend mode="normal" in="SourceGraphic" in2="effect1_dropShadow_2598_1446" result="shape"/>
</filter>
</defs>
</svg>
