<svg width="258" height="168" viewBox="0 0 258 168" fill="none" xmlns="http://www.w3.org/2000/svg">
<g filter="url(#filter0_d_2428_2)">
<path d="M128.517 55.0089C150.559 55.0089 180.14 0.412556 180.769 30.8878C168.408 31.631 152.319 52.4365 140.043 86.088C134.786 100.498 130.874 115.504 128.388 129.809C125.901 115.504 121.987 100.498 116.731 86.088C104.696 53.0968 88.9966 32.453 76.7375 30.9552C77.7545 0.332241 106.458 55.0076 128.517 55.0089Z" fill="white"/>
<path d="M128.417 36.4736C150.46 36.4736 180.041 -18.1225 180.669 12.3526C168.308 13.0958 152.22 33.9013 139.944 67.5527C134.687 81.9628 130.775 96.9688 128.288 111.273C125.801 96.9691 121.888 81.9635 116.631 67.5537C104.596 34.5626 88.8971 13.9188 76.638 12.4209C77.6544 -18.2041 106.358 36.4728 128.417 36.4736Z" fill="white"/>
<circle cx="128.604" cy="15.7661" r="13.7661" fill="white"/>
<path d="M23.1961 51.8349C23.046 67.4095 33.3461 91.6558 51.3055 115.025C76.543 147.865 103.705 156.647 120.106 156.731C122.691 141.43 122.755 116.457 102.765 86.8002C105.407 103.156 100.557 114.512 89.6677 115.102C78.0654 116.771 52.4215 101.754 32.8121 69.2041C29.2528 63.296 26.0338 57.4595 23.1961 51.8349Z" fill="white"/>
<path d="M233.968 52.0556C234.118 67.6301 223.817 91.8763 205.857 115.246C180.62 148.085 153.459 156.868 137.058 156.953C134.473 141.651 134.408 116.678 154.398 87.0209C151.756 103.377 156.607 114.733 167.496 115.323C179.098 116.992 204.742 101.975 224.352 69.4248C227.911 63.5166 231.13 57.6802 233.968 52.0556Z" fill="white"/>
<ellipse cx="174.348" cy="90.3487" rx="13.0366" ry="16.9282" transform="rotate(29.2861 174.348 90.3487)" fill="white"/>
<ellipse cx="13.0366" cy="16.9282" rx="13.0366" ry="16.9282" transform="matrix(-0.872188 0.489172 0.489172 0.872188 84.315 69.207)" fill="white"/>
</g>
<defs>
<filter id="filter0_d_2428_2" x="16.7814" y="0.0760751" width="223.601" height="167.779" filterUnits="userSpaceOnUse" color-interpolation-filters="sRGB">
<feFlood flood-opacity="0" result="BackgroundImageFix"/>
<feColorMatrix in="SourceAlpha" type="matrix" values="0 0 0 0 0 0 0 0 0 0 0 0 0 0 0 0 0 0 127 0" result="hardAlpha"/>
<feOffset dy="4.48916"/>
<feGaussianBlur stdDeviation="3.20654"/>
<feComposite in2="hardAlpha" operator="out"/>
<feColorMatrix type="matrix" values="0 0 0 0 0 0 0 0 0 0 0 0 0 0 0 0 0 0 0.25 0"/>
<feBlend mode="normal" in2="BackgroundImageFix" result="effect1_dropShadow_2428_2"/>
<feBlend mode="normal" in="SourceGraphic" in2="effect1_dropShadow_2428_2" result="shape"/>
</filter>
</defs>
</svg>
