<svg width="278" height="278" viewBox="0 0 278 278" fill="none" xmlns="http://www.w3.org/2000/svg">
<g filter="url(#filter0_d_2598_331)">
<rect x="94.1226" y="136.131" width="91.1406" height="75.1658" fill="white"/>
<rect x="105.75" y="165.465" width="13.3989" height="13.3989" fill="white" stroke="black" stroke-width="0.5"/>
<rect x="132.92" y="165.654" width="12.3989" height="12.3989" fill="white" stroke="black" stroke-width="0.5"/>
<rect x="159.287" y="163.523" width="13.3989" height="13.3989" fill="white" stroke="black" stroke-width="0.5"/>
<rect x="105.75" y="141.748" width="13.3989" height="13.3989" fill="white" stroke="black" stroke-width="0.5"/>
<rect x="159.287" y="141.748" width="13.3989" height="13.3989" fill="white" stroke="black" stroke-width="0.5"/>
<rect x="132.796" y="141.748" width="13.3989" height="13.3989" fill="white" stroke="black" stroke-width="0.5"/>
<rect x="94.1115" y="121.438" width="91.1247" height="11.928" fill="white"/>
<path d="M139.188 98.9688L185.073 119.045H93.3041L139.188 98.9688Z" fill="white"/>
<rect x="81.9332" y="133.113" width="114.51" height="3.55136" fill="white" stroke="black" stroke-width="0.5"/>
<rect x="81.9332" y="118.691" width="114.51" height="3.55136" fill="white" stroke="black" stroke-width="0.5"/>
<mask id="path-12-outside-1_2598_331" maskUnits="userSpaceOnUse" x="18.1853" y="22.2481" width="240.493" height="240.387" fill="black">
<rect fill="white" x="18.1853" y="22.2481" width="240.493" height="240.387"/>
<path d="M81.1521 92.7027C77.6372 89.6811 72.2994 90.0598 69.6417 93.8573C61.8219 105.031 56.8022 117.971 55.0698 131.583C52.9829 147.979 55.7574 164.627 63.049 179.46C70.3405 194.293 81.828 206.658 96.0851 215.019C110.342 223.381 126.741 227.371 143.246 226.494C159.751 225.618 175.635 219.913 188.927 210.088C202.218 200.263 212.331 186.751 218.01 171.229C223.689 155.707 224.685 138.859 220.873 122.776C217.708 109.425 211.346 97.089 202.386 86.8066C199.341 83.3119 193.993 83.5007 190.818 86.8778V86.8778C187.643 90.2548 187.854 95.5369 190.812 99.1057C197.421 107.08 202.134 116.497 204.54 126.648C207.593 139.531 206.796 153.027 202.247 165.461C197.697 177.895 189.596 188.719 178.949 196.59C168.302 204.46 155.578 209.03 142.356 209.732C129.134 210.435 115.998 207.238 104.577 200.54C93.1559 193.842 83.9537 183.937 78.1127 172.055C72.2717 160.173 70.0491 146.837 71.7209 133.702C73.038 123.354 76.7267 113.491 82.4536 104.861C85.0167 100.999 84.667 95.7244 81.1521 92.7027V92.7027Z"/>
</mask>
<path d="M81.1521 92.7027C77.6372 89.6811 72.2994 90.0598 69.6417 93.8573C61.8219 105.031 56.8022 117.971 55.0698 131.583C52.9829 147.979 55.7574 164.627 63.049 179.46C70.3405 194.293 81.828 206.658 96.0851 215.019C110.342 223.381 126.741 227.371 143.246 226.494C159.751 225.618 175.635 219.913 188.927 210.088C202.218 200.263 212.331 186.751 218.01 171.229C223.689 155.707 224.685 138.859 220.873 122.776C217.708 109.425 211.346 97.089 202.386 86.8066C199.341 83.3119 193.993 83.5007 190.818 86.8778V86.8778C187.643 90.2548 187.854 95.5369 190.812 99.1057C197.421 107.08 202.134 116.497 204.54 126.648C207.593 139.531 206.796 153.027 202.247 165.461C197.697 177.895 189.596 188.719 178.949 196.59C168.302 204.46 155.578 209.03 142.356 209.732C129.134 210.435 115.998 207.238 104.577 200.54C93.1559 193.842 83.9537 183.937 78.1127 172.055C72.2717 160.173 70.0491 146.837 71.7209 133.702C73.038 123.354 76.7267 113.491 82.4536 104.861C85.0167 100.999 84.667 95.7244 81.1521 92.7027V92.7027Z" fill="white"/>
<path d="M81.1521 92.7027C77.6372 89.6811 72.2994 90.0598 69.6417 93.8573C61.8219 105.031 56.8022 117.971 55.0698 131.583C52.9829 147.979 55.7574 164.627 63.049 179.46C70.3405 194.293 81.828 206.658 96.0851 215.019C110.342 223.381 126.741 227.371 143.246 226.494C159.751 225.618 175.635 219.913 188.927 210.088C202.218 200.263 212.331 186.751 218.01 171.229C223.689 155.707 224.685 138.859 220.873 122.776C217.708 109.425 211.346 97.089 202.386 86.8066C199.341 83.3119 193.993 83.5007 190.818 86.8778V86.8778C187.643 90.2548 187.854 95.5369 190.812 99.1057C197.421 107.08 202.134 116.497 204.54 126.648C207.593 139.531 206.796 153.027 202.247 165.461C197.697 177.895 189.596 188.719 178.949 196.59C168.302 204.46 155.578 209.03 142.356 209.732C129.134 210.435 115.998 207.238 104.577 200.54C93.1559 193.842 83.9537 183.937 78.1127 172.055C72.2717 160.173 70.0491 146.837 71.7209 133.702C73.038 123.354 76.7267 113.491 82.4536 104.861C85.0167 100.999 84.667 95.7244 81.1521 92.7027V92.7027Z" stroke="black" stroke-width="2" mask="url(#path-12-outside-1_2598_331)"/>
<path d="M187.572 80.4923C190.564 76.9518 190.139 71.6172 186.319 68.9919C172.275 59.3401 155.574 54.1283 138.402 54.1543C121.231 54.1804 104.546 59.4429 90.5308 69.1372C86.7188 71.7741 86.3107 77.11 89.3131 80.6413V80.6413C92.3154 84.1727 97.5883 84.5512 101.464 82.0093C112.398 74.8392 125.233 70.9598 138.428 70.9398C151.622 70.9197 164.47 74.7602 175.425 81.8971C179.309 84.4272 184.58 84.0327 187.572 80.4923V80.4923Z" fill="white"/>
<circle cx="138.382" cy="79.6991" r="13.1265" transform="rotate(134.402 138.382 79.6991)" fill="white" stroke="black"/>
</g>
<defs>
<filter id="filter0_d_2598_331" x="46.2588" y="52.0136" width="185.024" height="187.73" filterUnits="userSpaceOnUse" color-interpolation-filters="sRGB">
<feFlood flood-opacity="0" result="BackgroundImageFix"/>
<feColorMatrix in="SourceAlpha" type="matrix" values="0 0 0 0 0 0 0 0 0 0 0 0 0 0 0 0 0 0 127 0" result="hardAlpha"/>
<feOffset dy="4.99494"/>
<feGaussianBlur stdDeviation="3.56782"/>
<feComposite in2="hardAlpha" operator="out"/>
<feColorMatrix type="matrix" values="0 0 0 0 0 0 0 0 0 0 0 0 0 0 0 0 0 0 0.25 0"/>
<feBlend mode="normal" in2="BackgroundImageFix" result="effect1_dropShadow_2598_331"/>
<feBlend mode="normal" in="SourceGraphic" in2="effect1_dropShadow_2598_331" result="shape"/>
</filter>
</defs>
</svg>
