<svg width="232" height="228" viewBox="0 0 232 228" fill="none" xmlns="http://www.w3.org/2000/svg">
<g clip-path="url(#clip0_3298_63)">
<rect x="64.1835" y="108.033" width="112.503" height="92.7835" fill="white"/>
<rect x="78.5947" y="144.301" width="16.4222" height="16.4222" fill="white" stroke="black" stroke-width="0.5"/>
<rect x="112.015" y="144.418" width="15.4222" height="15.4222" fill="white" stroke="black" stroke-width="0.5"/>
<rect x="144.681" y="141.904" width="16.4222" height="16.4222" fill="white" stroke="black" stroke-width="0.5"/>
<rect x="78.5947" y="115.025" width="16.4222" height="16.4222" fill="white" stroke="black" stroke-width="0.5"/>
<rect x="144.681" y="115.025" width="16.4222" height="16.4222" fill="white" stroke="black" stroke-width="0.5"/>
<rect x="111.98" y="115.025" width="16.4222" height="16.4222" fill="white" stroke="black" stroke-width="0.5"/>
<rect x="64.1698" y="89.8965" width="112.483" height="14.7238" fill="white"/>
<path d="M119.812 62.1621L176.451 86.9443H63.1733L119.812 62.1621Z" fill="white"/>
<rect x="49.1959" y="104.367" width="141.232" height="4.26655" fill="white" stroke="black" stroke-width="0.5"/>
<rect x="49.1959" y="86.5645" width="141.232" height="4.26655" fill="white" stroke="black" stroke-width="0.5"/>
<mask id="path-12-outside-1_3298_63" maskUnits="userSpaceOnUse" x="-28.7584" y="-32.2836" width="296.143" height="296.143" fill="black">
<rect fill="white" x="-28.7584" y="-32.2836" width="296.143" height="296.143"/>
<path d="M48.173 54.4284C43.8343 50.6985 37.2454 51.166 33.9648 55.8536C24.3122 69.6462 18.116 85.6196 15.9774 102.422C13.4014 122.661 16.8262 143.21 25.8268 161.52C34.8274 179.83 49.0073 195.092 66.6061 205.414C84.205 215.735 104.448 220.661 124.821 219.579C145.195 218.496 164.802 211.454 181.208 199.327C197.615 187.199 210.098 170.52 217.108 151.36C224.119 132.2 225.347 111.403 220.642 91.5507C216.735 75.0699 208.882 59.8427 197.823 47.1503C194.064 42.8365 187.463 43.0696 183.543 47.2382V47.2382C179.624 51.4067 179.885 57.9269 183.536 62.3322C191.694 72.1753 197.511 83.8001 200.481 96.3294C204.25 112.232 203.266 128.892 197.65 144.241C192.034 159.589 182.034 172.95 168.892 182.665C155.749 192.38 140.043 198.021 123.722 198.888C107.402 199.755 91.186 195.809 77.0882 187.541C62.9904 179.273 51.6313 167.046 44.4213 152.379C37.2112 137.712 34.4677 121.25 36.5313 105.038C38.1571 92.2642 42.7104 80.0886 49.7796 69.4367C52.9435 64.6694 52.5117 58.1583 48.173 54.4284V54.4284Z"/>
</mask>
<path d="M48.173 54.4284C43.8343 50.6985 37.2454 51.166 33.9648 55.8536C24.3122 69.6462 18.116 85.6196 15.9774 102.422C13.4014 122.661 16.8262 143.21 25.8268 161.52C34.8274 179.83 49.0073 195.092 66.6061 205.414C84.205 215.735 104.448 220.661 124.821 219.579C145.195 218.496 164.802 211.454 181.208 199.327C197.615 187.199 210.098 170.52 217.108 151.36C224.119 132.2 225.347 111.403 220.642 91.5507C216.735 75.0699 208.882 59.8427 197.823 47.1503C194.064 42.8365 187.463 43.0696 183.543 47.2382V47.2382C179.624 51.4067 179.885 57.9269 183.536 62.3322C191.694 72.1753 197.511 83.8001 200.481 96.3294C204.25 112.232 203.266 128.892 197.65 144.241C192.034 159.589 182.034 172.95 168.892 182.665C155.749 192.38 140.043 198.021 123.722 198.888C107.402 199.755 91.186 195.809 77.0882 187.541C62.9904 179.273 51.6313 167.046 44.4213 152.379C37.2112 137.712 34.4677 121.25 36.5313 105.038C38.1571 92.2642 42.7104 80.0886 49.7796 69.4367C52.9435 64.6694 52.5117 58.1583 48.173 54.4284V54.4284Z" fill="white"/>
<path d="M48.173 54.4284C43.8343 50.6985 37.2454 51.166 33.9648 55.8536C24.3122 69.6462 18.116 85.6196 15.9774 102.422C13.4014 122.661 16.8262 143.21 25.8268 161.52C34.8274 179.83 49.0073 195.092 66.6061 205.414C84.205 215.735 104.448 220.661 124.821 219.579C145.195 218.496 164.802 211.454 181.208 199.327C197.615 187.199 210.098 170.52 217.108 151.36C224.119 132.2 225.347 111.403 220.642 91.5507C216.735 75.0699 208.882 59.8427 197.823 47.1503C194.064 42.8365 187.463 43.0696 183.543 47.2382V47.2382C179.624 51.4067 179.885 57.9269 183.536 62.3322C191.694 72.1753 197.511 83.8001 200.481 96.3294C204.25 112.232 203.266 128.892 197.65 144.241C192.034 159.589 182.034 172.95 168.892 182.665C155.749 192.38 140.043 198.021 123.722 198.888C107.402 199.755 91.186 195.809 77.0882 187.541C62.9904 179.273 51.6313 167.046 44.4213 152.379C37.2112 137.712 34.4677 121.25 36.5313 105.038C38.1571 92.2642 42.7104 80.0886 49.7796 69.4367C52.9435 64.6694 52.5117 58.1583 48.173 54.4284V54.4284Z" stroke="black" stroke-width="2" mask="url(#path-12-outside-1_3298_63)"/>
<path d="M179.536 39.3575C183.229 34.9872 182.705 28.4023 177.99 25.1617C160.654 13.2477 140.039 6.81427 118.842 6.84643C97.6453 6.87859 77.0496 13.3745 59.75 25.3411C55.0445 28.596 54.5408 35.1825 58.2468 39.5416V39.5416C61.9529 43.9006 68.4617 44.3678 73.2462 41.2301C86.7421 32.3795 102.586 27.5908 118.873 27.5661C135.161 27.5414 151.019 32.282 164.542 41.0916C169.336 44.2148 175.843 43.7278 179.536 39.3575V39.3575Z" fill="white"/>
<circle cx="118.817" cy="38.3752" r="16.3203" transform="rotate(134.402 118.817 38.3752)" fill="white" stroke="black"/>
</g>
<defs>
<clipPath id="clip0_3298_63">
<rect width="232" height="228" fill="white"/>
</clipPath>
</defs>
</svg>
