<svg width="289" height="275" viewBox="0 0 289 275" fill="none" xmlns="http://www.w3.org/2000/svg">
<g filter="url(#filter0_d_2598_1021)">
<path d="M114.915 227.156L114.915 82.58L131.721 76.0312M131.721 76.0312L131.721 227.156L148.033 227.156L148.033 82.58L131.721 76.0312Z" stroke="white" stroke-width="5.24994"/>
<path d="M161.783 220.215L161.783 69.8126L180.521 63M180.521 63L180.521 220.215L198.707 212.878L198.707 69.8126L180.521 63Z" stroke="white" stroke-width="5.24994"/>
<path d="M74.957 204.102L74.957 98.5063L87.8997 92.9473M87.8997 92.9473L87.8997 210.383L100.462 215.245L100.462 98.5063L87.8997 92.9473Z" stroke="white" stroke-width="5.24994"/>
<path d="M224.913 181.878C229.925 184.657 231.702 190.822 228.337 195.227C219.232 207.149 207.41 217.019 193.706 224.071C176.937 232.701 157.996 236.778 138.954 235.859C119.911 234.939 101.502 229.057 85.7395 218.856C72.8857 210.538 62.1957 199.609 54.4118 186.908C51.4799 182.124 53.7844 176.208 58.9886 173.96C64.2384 171.692 70.4333 174.028 73.5264 178.777C79.6395 188.162 87.774 196.26 97.4371 202.513C110.047 210.674 124.775 215.379 140.008 216.115C155.242 216.851 170.395 213.589 183.81 206.685C194.25 201.313 203.325 193.895 210.458 184.964C213.847 180.721 220.007 179.158 224.913 181.878Z" fill="white"/>
<path d="M235.832 163.545L238.124 200.395L202.943 180.325L235.832 163.545Z" fill="white"/>
<circle cx="221.738" cy="144.843" r="10.8811" fill="white" stroke="black" stroke-width="1.45832"/>
<path d="M221.728 137.613L221.728 152.035" stroke="black" stroke-width="1.31106" stroke-linecap="round" stroke-linejoin="round"/>
<path d="M225.005 140.236L220.089 140.236C219.48 140.236 218.897 140.478 218.466 140.908C218.036 141.339 217.794 141.922 217.794 142.531C217.794 143.139 218.036 143.723 218.466 144.153C218.897 144.583 219.48 144.825 220.089 144.825L223.366 144.825C223.975 144.825 224.558 145.067 224.989 145.497C225.419 145.927 225.661 146.511 225.661 147.119C225.661 147.728 225.419 148.311 224.989 148.742C224.558 149.172 223.975 149.414 223.366 149.414L217.794 149.414" fill="white"/>
<path d="M225.005 140.236L220.089 140.236C219.48 140.236 218.897 140.478 218.466 140.908C218.036 141.339 217.794 141.922 217.794 142.531C217.794 143.139 218.036 143.723 218.466 144.153C218.897 144.583 219.48 144.825 220.089 144.825L223.366 144.825C223.975 144.825 224.558 145.067 224.989 145.497C225.419 145.927 225.661 146.511 225.661 147.119C225.661 147.728 225.419 148.311 224.989 148.742C224.558 149.172 223.975 149.414 223.366 149.414L217.794 149.414" stroke="black" stroke-width="1.31106" stroke-linecap="round" stroke-linejoin="round"/>
</g>
<defs>
<filter id="filter0_d_2598_1021" x="47.2908" y="58.4512" width="196.666" height="187.452" filterUnits="userSpaceOnUse" color-interpolation-filters="sRGB">
<feFlood flood-opacity="0" result="BackgroundImageFix"/>
<feColorMatrix in="SourceAlpha" type="matrix" values="0 0 0 0 0 0 0 0 0 0 0 0 0 0 0 0 0 0 127 0" result="hardAlpha"/>
<feOffset dy="4.08329"/>
<feGaussianBlur stdDeviation="2.91663"/>
<feComposite in2="hardAlpha" operator="out"/>
<feColorMatrix type="matrix" values="0 0 0 0 0 0 0 0 0 0 0 0 0 0 0 0 0 0 0.25 0"/>
<feBlend mode="normal" in2="BackgroundImageFix" result="effect1_dropShadow_2598_1021"/>
<feBlend mode="normal" in="SourceGraphic" in2="effect1_dropShadow_2598_1021" result="shape"/>
</filter>
</defs>
</svg>
