<svg width="141" height="165" viewBox="0 0 141 165" fill="none" xmlns="http://www.w3.org/2000/svg">
<g filter="url(#filter0_d_2598_1415)">
<path d="M22.1132 93.1797L70.8191 93.1797L77.7369 150.154C78.1476 153.537 75.5071 156.517 72.0992 156.517L20.7976 156.517C17.3883 156.517 14.7473 153.534 15.1604 150.15L22.1132 93.1797Z" fill="white"/>
<path d="M10.124 42.8178L37.0602 36.3105L70.1487 90.4195L21.8766 90.4195L10.124 42.8178Z" fill="white"/>
<path d="M46.4858 43.1738L62.0244 54.3742L79.7715 67.0338L72.5149 88.3698L46.4858 43.1738Z" fill="white"/>
<rect x="5" y="28.4238" width="30.4516" height="15.5921" transform="rotate(-19.2548 5 28.4238)" fill="white"/>
<rect x="33.6123" y="17.7031" width="28.9987" height="10.662" transform="rotate(32.1606 33.6123 17.7031)" fill="white"/>
<rect x="87.1548" y="37.8105" width="11.9892" height="25.9502" transform="rotate(37.3522 87.1548 37.8105)" fill="white"/>
<rect x="75.0903" y="27.2266" width="13.5722" height="25.9502" transform="rotate(37.3522 75.0903 27.2266)" fill="white"/>
<path d="M60.958 15.582L73.2593 24.9708L57.515 45.5992L53.5453 43.016L59.8159 32.6044L52.0861 27.2408L60.958 15.582Z" fill="white"/>
<path d="M46.4546 2L58.7595 11.3916L49.0095 26.5699L36.1527 17.6175L46.4546 2Z" fill="white"/>
<path d="M86.1461 143.86C87.9692 142.544 89.1947 140.558 89.5531 138.338L89.6679 137.626C89.8907 136.281 90.5022 135.029 91.427 134.027C92.3518 133.024 93.5497 132.313 94.8731 131.983C96.2253 131.629 97.6523 131.689 98.9701 132.155C100.288 132.62 101.436 133.469 102.267 134.593L102.477 134.885C103.129 135.789 103.952 136.555 104.901 137.14C105.849 137.726 106.903 138.118 108.003 138.296C109.103 138.473 110.227 138.433 111.311 138.175C112.395 137.918 113.418 137.45 114.321 136.797C115.224 136.145 115.991 135.322 116.576 134.374C117.161 133.426 117.554 132.372 117.731 131.272C117.909 130.172 117.868 129.048 117.611 127.964C117.354 126.88 116.885 125.857 116.233 124.954L116.022 124.662C115.217 123.52 114.772 122.163 114.745 120.766C114.718 119.368 115.11 117.995 115.871 116.823C116.601 115.67 117.652 114.757 118.895 114.195C120.138 113.632 121.518 113.446 122.866 113.658L123.242 113.719C125.462 114.077 127.733 113.539 129.557 112.223C131.38 110.906 132.605 108.92 132.964 106.7C133.322 104.48 132.784 102.209 131.468 100.386C130.151 98.5628 128.165 97.3373 125.945 96.9789L125.233 96.864C123.888 96.6412 122.636 96.0298 121.634 95.105C120.631 94.1801 119.921 92.9823 119.59 91.6589L119.644 91.3241C119.291 89.9719 119.35 88.5449 119.816 87.227C120.281 85.9092 121.131 84.761 122.255 83.9304L122.546 83.7199C123.45 83.0682 124.216 82.2447 124.802 81.2967C125.387 80.3486 125.779 79.2944 125.957 78.1945C126.135 77.0946 126.094 75.9704 125.836 74.8863C125.579 73.8022 125.111 72.7795 124.458 71.8765C123.807 70.9728 122.983 70.2064 122.035 69.6212C121.087 69.0359 120.033 68.6433 118.933 68.4657C117.833 68.2881 116.709 68.3291 115.625 68.5862C114.541 68.8434 113.518 69.3117 112.615 69.9644L112.323 70.175C111.181 70.9805 109.824 71.4255 108.427 71.4525C107.029 71.4795 105.656 71.0872 104.484 70.3264C103.332 69.596 102.418 68.5447 101.856 67.3019C101.294 66.0591 101.107 64.679 101.319 63.3315L101.38 62.9548C101.738 60.735 101.2 58.4637 99.8838 56.6406" stroke="white" stroke-width="5.23468" stroke-linecap="round" stroke-linejoin="round"/>
<path d="M75.7074 111.519C77.745 112.65 80.023 113.279 82.3524 113.353C84.6817 113.428 86.9952 112.946 89.1009 111.947C91.2067 110.948 93.0439 109.462 94.4602 107.611C95.8766 105.76 96.8311 103.599 97.2447 101.305C97.6584 99.0115 97.5191 96.6524 96.8385 94.4235C96.1579 92.1946 94.9556 90.1601 93.3314 88.4888C91.7071 86.8175 89.7078 85.5577 87.4992 84.8137C85.2906 84.0698 82.9364 83.8633 80.632 84.2113L81.5074 90.0083C82.8901 89.7995 84.3026 89.9234 85.6277 90.3698C86.9529 90.8161 88.1525 91.572 89.1271 92.5748C90.1016 93.5776 90.823 94.7983 91.2313 96.1356C91.6397 97.473 91.7232 98.8885 91.4751 100.265C91.2269 101.641 90.6542 102.938 89.8044 104.048C88.9546 105.159 87.8522 106.051 86.5888 106.65C85.3253 107.249 83.9372 107.538 82.5396 107.493C81.142 107.449 79.7752 107.071 78.5526 106.393L75.7074 111.519Z" fill="white"/>
</g>
<defs>
<filter id="filter0_d_2598_1415" x="0.0315695" y="0.509471" width="140.626" height="164.454" filterUnits="userSpaceOnUse" color-interpolation-filters="sRGB">
<feFlood flood-opacity="0" result="BackgroundImageFix"/>
<feColorMatrix in="SourceAlpha" type="matrix" values="0 0 0 0 0 0 0 0 0 0 0 0 0 0 0 0 0 0 127 0" result="hardAlpha"/>
<feOffset dy="3.4779"/>
<feGaussianBlur stdDeviation="2.48422"/>
<feComposite in2="hardAlpha" operator="out"/>
<feColorMatrix type="matrix" values="0 0 0 0 0 0 0 0 0 0 0 0 0 0 0 0 0 0 0.25 0"/>
<feBlend mode="normal" in2="BackgroundImageFix" result="effect1_dropShadow_2598_1415"/>
<feBlend mode="normal" in="SourceGraphic" in2="effect1_dropShadow_2598_1415" result="shape"/>
</filter>
</defs>
</svg>
