<svg width="392" height="338" viewBox="0 0 392 338" fill="none" xmlns="http://www.w3.org/2000/svg">
<g filter="url(#filter0_d_2435_740)">
<path d="M253.337 201.806L137.058 187.403C139.75 175.36 143.818 159.578 150.997 148.512C157.898 137.874 166.402 128.489 172.724 121.434C181.293 128.997 202.282 136.762 227.663 140.987C259.239 146.243 286.686 144.202 292.678 136.61L294.171 136.835L253.337 201.806Z" fill="white"/>
<path d="M256.339 206.57L72.9167 208.51C81.6836 205.772 94.5676 192.153 104.945 173.737C113.416 158.704 118.121 144.191 118.18 134.848L118.215 134.85C128.006 142.581 162.728 148.828 204.099 149.63C248.908 150.498 286.008 144.678 292.109 136.3L294.222 136.318L256.339 206.57Z" fill="black"/>
<path d="M265.416 209.519L97.5996 228.163C104.969 224.754 114.222 212.596 120.836 196.632C126.34 183.345 128.684 170.63 127.702 162.345H132.081V150.769L132.216 150.757C141.883 157.558 174.369 160.596 212.514 157.604C253.829 154.362 287.482 145.167 292.388 136.266L294.333 136.09L265.416 209.519Z" fill="white"/>
<path d="M307.494 171.587C311.847 170.919 315.798 173.864 315.812 178.178C315.857 192.513 312.004 206.84 304.598 219.59C295.847 234.658 282.605 246.713 266.858 253.95C251.111 261.187 233.706 263.215 217.251 259.73C203.303 256.777 190.675 249.997 180.7 240.196C177.702 237.249 178.273 232.344 181.626 229.499C185.071 226.576 190.124 226.949 193.297 229.881C201.06 237.051 210.672 242.026 221.229 244.262C234.393 247.049 248.317 245.427 260.915 239.637C273.513 233.848 284.106 224.204 291.107 212.15C296.789 202.367 299.856 191.425 300.067 180.429C300.148 176.174 303.204 172.246 307.494 171.587Z" fill="white"/>
<path d="M306.372 144.891L330.675 175.098L288.344 179.214L306.372 144.891Z" fill="white"/>
<path d="M83.8941 162.455C79.5168 162.938 75.6936 159.828 75.8627 155.517C76.4943 139.416 82.0447 123.574 91.8608 110.174C103.263 94.6089 119.665 83.3684 138.095 78.4899C156.525 73.6115 175.762 75.4181 192.319 83.5821C206.615 90.6308 218.095 102.016 225.27 116.106C227.169 119.835 225.125 124.375 221.106 126.101C216.985 127.87 212.374 126.003 210.314 122.242C204.538 111.694 195.683 103.168 184.783 97.7939C171.538 91.2627 156.148 89.8175 141.404 93.7202C126.66 97.623 113.538 106.615 104.417 119.067C96.85 129.397 92.4517 141.539 91.689 153.934C91.4276 158.183 88.2088 161.978 83.8941 162.455Z" fill="white"/>
<path d="M85.0013 187.014L61.9984 155.806L104.465 153.484L85.0013 187.014Z" fill="white"/>
</g>
<defs>
<filter id="filter0_d_2435_740" x="55.5853" y="73.8808" width="281.503" height="198.414" filterUnits="userSpaceOnUse" color-interpolation-filters="sRGB">
<feFlood flood-opacity="0" result="BackgroundImageFix"/>
<feColorMatrix in="SourceAlpha" type="matrix" values="0 0 0 0 0 0 0 0 0 0 0 0 0 0 0 0 0 0 127 0" result="hardAlpha"/>
<feOffset dy="4.48916"/>
<feGaussianBlur stdDeviation="3.20654"/>
<feComposite in2="hardAlpha" operator="out"/>
<feColorMatrix type="matrix" values="0 0 0 0 0 0 0 0 0 0 0 0 0 0 0 0 0 0 0.25 0"/>
<feBlend mode="normal" in2="BackgroundImageFix" result="effect1_dropShadow_2435_740"/>
<feBlend mode="normal" in="SourceGraphic" in2="effect1_dropShadow_2435_740" result="shape"/>
</filter>
</defs>
</svg>
