<svg width="188" height="172" viewBox="0 0 188 172" fill="none" xmlns="http://www.w3.org/2000/svg">
<g clip-path="url(#clip0_2598_114)">
<g filter="url(#filter0_d_2598_114)">
<path d="M115.121 113.616C114.556 123.095 113.69 131.936 112.58 139.874C106.839 141.823 100.687 142.881 94.2874 142.881C88.6922 142.881 83.2864 142.071 78.179 140.565C77.0225 132.451 76.1223 123.371 75.5403 113.616H115.121ZM59.2336 113.616C59.8981 120.468 60.8446 126.926 62.0286 132.853C54.8255 127.883 48.8235 121.297 44.55 113.616H59.2336ZM144.025 113.616C140.241 120.416 135.103 126.359 128.976 131.081C130 125.646 130.828 119.791 131.427 113.616H144.025ZM59.0149 68.7412C58.4318 75.5036 58.1184 82.6245 58.1184 89.9775C58.1184 93.3577 58.185 96.6891 58.3127 99.959H39.134C38.0074 95.493 37.4075 90.8168 37.4075 86.001C37.4075 79.9837 38.3438 74.1848 40.0754 68.7412H59.0149ZM115.5 68.7412C115.751 74.7752 115.884 81.0243 115.884 87.4258C115.884 91.6768 115.825 95.8608 115.712 99.959H74.9504C74.8381 95.8607 74.7776 91.6768 74.7776 87.4258C74.7776 81.0243 74.9117 74.7752 75.1624 68.7412H115.5ZM148.499 68.7412C150.231 74.1848 151.166 79.9838 151.166 86.001C151.166 90.8168 150.567 95.493 149.441 99.959H132.348C132.476 96.6891 132.542 93.3577 132.542 89.9775C132.542 82.6245 132.23 75.5036 131.647 68.7412H148.499ZM64.2219 37.71C62.7999 42.9501 61.5883 48.7858 60.6282 55.084H46.5374C51.0834 48.0772 57.1305 42.1348 64.2219 37.71ZM94.2874 29.1211C100.525 29.1211 106.527 30.1261 112.143 31.9814C113.206 38.9753 114.075 46.7429 114.705 55.084H75.9563C76.6072 46.4742 77.5095 38.4751 78.6204 31.3076C83.5974 29.8844 88.8532 29.1211 94.2874 29.1211ZM126.879 39.3818C132.884 43.5884 138.04 48.925 142.036 55.084H130.032C129.173 49.4477 128.112 44.182 126.879 39.3818Z" fill="white"/>
<path d="M155.219 30.4655C156.988 29.9916 158.793 31.034 159.248 32.7917L162.373 44.4528L182.164 50.5075L183.316 54.7452L164.938 53.9666L168.071 65.6577L173.16 67.6837L174 70.8803L166.026 70.7359L159.162 74.8563L158.272 71.6568L161.718 67.3116L158.61 55.7104L143.026 65.5408L141.905 61.295L156.018 46.1557L152.893 34.4945C152.405 32.7939 153.502 30.8934 155.219 30.4655Z" fill="white"/>
<path d="M136.853 32.049C139.465 28.7352 138.913 23.8954 135.355 21.6277C123.159 13.8542 108.955 9.67347 94.3879 9.65604C77.264 9.63552 60.6297 15.3688 47.155 25.9358C33.6802 36.5027 24.1464 51.2904 20.0838 67.9255C16.0212 84.5605 17.6654 102.078 24.7524 117.667C31.8395 133.255 43.9585 146.011 59.1642 153.886C74.3699 161.761 91.7804 164.299 108.601 161.092C125.423 157.886 140.678 149.121 151.921 136.204C161.485 125.215 167.672 111.764 169.833 97.4636C170.463 93.2919 167.179 89.6944 162.965 89.4837C158.751 89.273 155.213 92.5338 154.478 96.6885C152.556 107.566 147.71 117.769 140.396 126.173C131.402 136.506 119.197 143.518 105.74 146.084C92.2836 148.649 78.3552 146.618 66.1906 140.318C54.026 134.018 44.3309 123.814 38.6612 111.343C32.9916 98.8724 31.6762 84.8583 34.9263 71.5503C38.1764 58.2423 45.8034 46.4121 56.5832 37.9586C67.3631 29.505 80.6705 24.9184 94.3696 24.9348C105.51 24.9481 116.385 28.0051 125.845 33.7072C129.458 35.8852 134.242 35.3627 136.853 32.049Z" fill="white"/>
</g>
</g>
<defs>
<filter id="filter0_d_2598_114" x="13.085" y="8.21093" width="175.049" height="162.423" filterUnits="userSpaceOnUse" color-interpolation-filters="sRGB">
<feFlood flood-opacity="0" result="BackgroundImageFix"/>
<feColorMatrix in="SourceAlpha" type="matrix" values="0 0 0 0 0 0 0 0 0 0 0 0 0 0 0 0 0 0 127 0" result="hardAlpha"/>
<feOffset dy="3.37241"/>
<feGaussianBlur stdDeviation="2.40887"/>
<feComposite in2="hardAlpha" operator="out"/>
<feColorMatrix type="matrix" values="0 0 0 0 0 0 0 0 0 0 0 0 0 0 0 0 0 0 0.25 0"/>
<feBlend mode="normal" in2="BackgroundImageFix" result="effect1_dropShadow_2598_114"/>
<feBlend mode="normal" in="SourceGraphic" in2="effect1_dropShadow_2598_114" result="shape"/>
</filter>
<clipPath id="clip0_2598_114">
<rect width="186.561" height="172" fill="white" transform="translate(0.777832)"/>
</clipPath>
</defs>
</svg>
