<svg width="172" height="167" viewBox="0 0 172 167" fill="none" xmlns="http://www.w3.org/2000/svg">
<g filter="url(#filter0_d_2598_1483)">
<path d="M26.4902 37.666C27.5021 59.1422 39.6542 77.1251 56.2686 83.7646C59.6966 105.054 70.65 122.96 85.5293 133C49.2388 132.413 20.001 102.812 20.001 66.3818C20.001 56.0995 22.3307 46.3615 26.4902 37.666Z" fill="white"/>
<path d="M144.538 37.6641C143.527 59.1415 131.376 77.1258 114.761 83.7656C111.333 105.054 100.381 122.958 85.5029 132.999C121.792 132.41 151.028 102.811 151.028 66.3818C151.028 56.0989 148.698 46.36 144.538 37.6641Z" fill="white"/>
<circle cx="47.068" cy="54.4972" r="10.0636" fill="white"/>
<circle cx="124.28" cy="54.4972" r="10.0636" fill="white"/>
<circle cx="85.6739" cy="64.5597" r="10.0636" fill="white"/>
<path d="M83.3564 129.541C84.1226 129.585 84.8929 129.614 85.667 129.627C85.6651 129.628 85.663 129.631 85.6611 129.632C86.3582 129.621 87.0525 129.595 87.7432 129.559C87.055 129.61 86.3615 129.64 85.6631 129.64C84.8881 129.64 84.1188 129.604 83.3564 129.541ZM105.235 50.1602C105.851 50.6925 106.453 51.2471 107.039 51.8271C109.701 59.3165 111.181 67.6032 111.181 76.3193C111.18 99.3406 100.865 119.363 85.6748 129.621C70.4835 119.363 60.1693 99.3392 60.1689 76.3174C60.1689 67.5893 61.6517 59.2914 64.3203 51.7939C64.801 51.3191 65.2933 50.8609 65.7939 50.418C65.1824 53.2935 64.8525 56.3532 64.8525 59.5254C64.8528 76.3426 74.1169 89.9764 85.5439 89.9766C96.9711 89.9766 106.235 76.3427 106.235 59.5254C106.235 56.2579 105.883 53.1106 105.235 50.1602Z" fill="white"/>
<path d="M85.006 35.2798C86.7165 35.2798 88.121 33.8887 87.9302 32.1889C87.186 25.5596 84.0642 19.3334 79.0318 14.5758C73.2235 9.08483 65.3458 6 57.1317 6C48.9175 6 41.0398 9.08482 35.2315 14.5758C30.1991 19.3334 27.0773 25.5596 26.3331 32.1889C26.1423 33.8887 27.5468 35.2798 29.2573 35.2798C30.9678 35.2798 32.3323 33.8864 32.5705 32.1925C33.2839 27.1197 35.7415 22.3753 39.6115 18.7166C44.2582 14.3238 50.5603 11.856 57.1317 11.856C63.703 11.856 70.0051 14.3238 74.6518 18.7166C78.5218 22.3753 80.9794 27.1197 81.6928 32.1925C81.931 33.8864 83.2955 35.2798 85.006 35.2798Z" fill="white"/>
<path d="M142.091 35.2798C143.801 35.2798 145.206 33.8887 145.015 32.1889C144.271 25.5596 141.149 19.3334 136.117 14.5758C130.308 9.08483 122.431 6 114.217 6C106.002 6 98.1247 9.08482 92.3165 14.5758C87.284 19.3334 84.1623 25.5596 83.4181 32.1889C83.2272 33.8887 84.6318 35.2798 86.3423 35.2798C88.0528 35.2798 89.4173 33.8864 89.6555 32.1925C90.3688 27.1197 92.8264 22.3753 96.6965 18.7166C101.343 14.3238 107.645 11.856 114.217 11.856C120.788 11.856 127.09 14.3238 131.737 18.7166C135.607 22.3753 138.064 27.1197 138.778 32.1925C139.016 33.8864 140.38 35.2798 142.091 35.2798Z" fill="white"/>
</g>
<defs>
<filter id="filter0_d_2598_1483" x="0.000976562" y="0" width="171.027" height="167" filterUnits="userSpaceOnUse" color-interpolation-filters="sRGB">
<feFlood flood-opacity="0" result="BackgroundImageFix"/>
<feColorMatrix in="SourceAlpha" type="matrix" values="0 0 0 0 0 0 0 0 0 0 0 0 0 0 0 0 0 0 127 0" result="hardAlpha"/>
<feOffset dy="14"/>
<feGaussianBlur stdDeviation="10"/>
<feComposite in2="hardAlpha" operator="out"/>
<feColorMatrix type="matrix" values="0 0 0 0 0 0 0 0 0 0 0 0 0 0 0 0 0 0 0.25 0"/>
<feBlend mode="normal" in2="BackgroundImageFix" result="effect1_dropShadow_2598_1483"/>
<feBlend mode="normal" in="SourceGraphic" in2="effect1_dropShadow_2598_1483" result="shape"/>
</filter>
</defs>
</svg>
