<svg width="195" height="183" viewBox="0 0 195 183" fill="none" xmlns="http://www.w3.org/2000/svg">
<g filter="url(#filter0_d_2598_1059)">
<path d="M41.1723 146.806C26.2141 134.151 24.324 93.167 41.7766 95.668C50.8705 97.7269 57.7867 97.7479 63.1953 96.6497C57.6591 101.464 53.2787 105.668 51.5216 107.745C45.3411 115.051 46.2534 125.984 53.5592 132.165C60.865 138.345 73.823 138.747 77.9779 130.127C88.2449 108.826 95.6343 98.9156 100.349 93.3957C101.652 102.406 92.3623 113.118 92.6092 138.465C92.7753 155.569 56.1307 159.46 41.1723 146.806Z" fill="white"/>
<circle cx="32.2045" cy="153.318" r="18.7087" fill="white" stroke="black" stroke-width="0.835307"/>
<path d="M161.7 142.024C150.655 158.207 110.084 164.314 110.772 146.697C111.882 137.44 111.191 130.559 109.541 125.292C114.9 130.302 119.534 134.226 121.781 135.759C129.685 141.153 140.466 139.118 145.86 131.214C151.254 123.31 150.317 110.38 141.314 107.136C119.067 99.1198 108.449 92.7907 102.472 88.6702C111.3 86.4452 122.913 94.5807 148.099 91.7213C165.095 89.7923 172.744 125.84 161.7 142.024Z" fill="white"/>
<circle cx="169.103" cy="150.273" r="18.7087" transform="rotate(-95.9189 169.103 150.273)" fill="white" stroke="black" stroke-width="0.835307"/>
<path d="M155.847 23.2574C171.76 34.6879 176.888 75.3937 159.293 74.283C150.066 72.9505 143.169 73.4757 137.865 74.9981C143.002 69.7609 147.036 65.2232 148.623 63.0139C154.205 55.2419 152.43 44.4159 144.658 38.8332C136.886 33.2505 123.937 33.8748 120.477 42.7964C111.928 64.8435 105.346 75.3079 101.083 81.1837C99.0713 72.3044 107.483 60.8915 105.231 35.6441C103.711 18.6061 139.934 11.8267 155.847 23.2574Z" fill="white"/>
<circle cx="165.287" cy="20.9935" r="18.7087" transform="rotate(-95.9189 165.287 20.9935)" fill="white" stroke="black" stroke-width="0.835307"/>
<path d="M33.3024 33.7809C43.0394 16.7787 83.0044 7.4994 83.7049 25.1161C83.3265 34.4307 84.5566 41.2362 86.6151 46.3563C80.8787 41.7838 75.9508 38.2379 73.5904 36.8861C65.2865 32.1308 54.6998 35.0077 49.9443 43.3116C45.189 51.6155 47.1393 64.4314 56.3689 66.9572C79.1769 73.1982 90.2616 78.6717 96.544 82.3093C87.918 85.2222 75.7018 78.025 50.8184 82.8569C34.0265 86.1173 23.5657 50.7832 33.3024 33.7809Z" fill="white"/>
<circle cx="25.2745" cy="26.1403" r="18.7087" transform="rotate(79.5693 25.2745 26.1403)" fill="white" stroke="black" stroke-width="0.835307"/>
<circle cx="100.094" cy="85.4686" r="13.3025" fill="white"/>
</g>
<defs>
<filter id="filter0_d_2598_1059" x="0.0289106" y="0.0304017" width="194.318" height="182.81" filterUnits="userSpaceOnUse" color-interpolation-filters="sRGB">
<feFlood flood-opacity="0" result="BackgroundImageFix"/>
<feColorMatrix in="SourceAlpha" type="matrix" values="0 0 0 0 0 0 0 0 0 0 0 0 0 0 0 0 0 0 127 0" result="hardAlpha"/>
<feOffset dy="4.28128"/>
<feGaussianBlur stdDeviation="3.05805"/>
<feComposite in2="hardAlpha" operator="out"/>
<feColorMatrix type="matrix" values="0 0 0 0 0 0 0 0 0 0 0 0 0 0 0 0 0 0 0.25 0"/>
<feBlend mode="normal" in2="BackgroundImageFix" result="effect1_dropShadow_2598_1059"/>
<feBlend mode="normal" in="SourceGraphic" in2="effect1_dropShadow_2598_1059" result="shape"/>
</filter>
</defs>
</svg>
