<svg width="217" height="182" viewBox="0 0 217 182" fill="none" xmlns="http://www.w3.org/2000/svg">
<g filter="url(#filter0_d_2598_928)">
<path d="M145.868 22.5645C131.465 32.6977 123.228 47.1836 118.986 57.1191C107.038 85.1046 129.393 94.9041 171.703 79.7891C160.732 93.5383 150.278 112.482 144.966 132.363C141.276 146.173 140.778 158.45 142.295 169.001C118.953 161.111 101.607 131.554 101.606 96.2959C101.607 59.2612 120.746 28.5159 145.868 22.5645Z" fill="white"/>
<path d="M35.1473 143.193C29.8687 126.397 32.1293 109.891 34.7965 99.4241C42.3106 69.9366 66.0217 75.7366 90.4419 113.45C90.0823 95.8628 93.2894 74.4628 101.151 55.4441C106.612 42.2334 113.676 32.1799 121.292 24.7214C97.9585 16.8062 66.2225 29.7417 44.7998 57.7444C22.2997 87.1556 18.8164 123.2 35.1473 143.193Z" fill="white"/>
<ellipse cx="139.41" cy="64.2844" rx="11.6534" ry="11.9816" fill="white"/>
<ellipse cx="53.3316" cy="103.511" rx="11.6534" ry="11.9816" fill="white"/>
<path d="M92.8713 146.638C90.4968 147.429 88.0131 147.893 85.5021 148.012C86.3391 138.432 82.6363 129.434 76.1133 123.229C85.8024 126.05 92.8895 135.002 92.8895 145.601C92.8895 145.946 92.8804 146.292 92.8713 146.638ZM92.5165 149.795C91.9888 152.706 90.9153 155.435 89.4051 157.864C80.5348 162.277 69.5993 161.74 61.0292 155.636C63.1854 152.342 66.0694 149.476 69.6266 147.284C76.8957 151.214 85.1018 151.905 92.5165 149.795ZM71.0458 144.746C70.8184 136.476 67.3067 129.034 61.7752 123.666C64.2134 122.784 66.8518 122.311 69.5993 122.311C69.8449 122.311 70.0815 122.311 70.318 122.32C78.5788 127.796 83.5734 137.531 82.5727 148.003C78.6515 147.784 74.7122 146.72 71.0367 144.736L71.0458 144.746ZM58.864 124.931C60.7381 126.596 62.3848 128.515 63.7494 130.626C55.0338 134.693 49.093 142.398 46.9732 151.141C46.5365 149.367 46.3091 147.511 46.3091 145.601C46.3091 136.612 51.4038 128.815 58.864 124.931ZM65.196 133.164C66.97 136.676 68.0163 140.615 68.1346 144.782C61.0929 149.112 56.3985 155.872 54.5152 163.341C52.3136 161.467 50.4576 159.193 49.0748 156.627C49.6843 146.738 55.6161 137.531 65.1869 133.164H65.196ZM69.5993 168.891C64.9867 168.891 60.6835 167.554 57.0626 165.234C57.5721 162.777 58.4091 160.403 59.5554 158.165C67.434 163.669 77.0685 164.961 85.7023 162.432C81.5173 166.435 75.8494 168.891 69.5993 168.891Z" fill="white"/>
<path d="M193.685 47.8793C193.993 46.7225 194.105 45.5249 194.255 44.3756C194.467 41.5542 194.079 38.8555 194.424 36.0465C195.21 29.5204 200.618 23.8975 207.092 22.491C204.681 20.6541 201.775 19.6881 198.975 19.1123C188.759 17.0134 177.584 21.8944 172.038 31.1511C171.864 31.448 171.691 31.745 171.365 32.0052C170.813 32.4457 170.022 32.4834 169.435 32.1599C168.74 31.8039 168.427 31.1034 168.462 30.3236C168.472 30.0912 168.525 29.861 168.618 29.6447C170.024 24.0492 174.819 19.5097 180.399 18.0642C173.765 16.7486 166.239 19.1527 161.047 23.8116C159.909 24.9577 158.77 26.1038 157.844 27.5159C156.609 29.0557 155.626 30.9099 154.875 32.6964C152.62 38.7716 153.12 45.7762 156.372 51.1373C159.825 56.8528 165.224 61.6097 172.101 62.6126C179.797 63.7145 187.705 59.9367 191.609 53.0989L192.01 52.264C192.759 50.8352 193.685 47.8793 193.685 47.8793ZM171.783 52.8508C170.641 52.6541 169.101 52.0623 168.155 51.392C164.99 49.4844 164.233 45.6548 164.614 42.7375C167.614 45.0546 171.191 45.0097 173.829 43.7357C176.164 42.5451 177.202 40.4499 178.882 38.594C180.507 36.8223 182.125 35.6094 184.377 34.8809C183.791 36.1011 183.224 37.3455 182.934 38.5265C181.912 42.3906 183.144 46.1975 180.235 49.549C179.961 49.9261 179.648 50.2547 179.272 50.555C177.273 52.2693 174.321 53.2005 171.783 52.8508Z" fill="white"/>
</g>
<defs>
<filter id="filter0_d_2598_928" x="17.6736" y="15.5104" width="196.74" height="165.937" filterUnits="userSpaceOnUse" color-interpolation-filters="sRGB">
<feFlood flood-opacity="0" result="BackgroundImageFix"/>
<feColorMatrix in="SourceAlpha" type="matrix" values="0 0 0 0 0 0 0 0 0 0 0 0 0 0 0 0 0 0 127 0" result="hardAlpha"/>
<feOffset dy="5.12539"/>
<feGaussianBlur stdDeviation="3.66099"/>
<feComposite in2="hardAlpha" operator="out"/>
<feColorMatrix type="matrix" values="0 0 0 0 0 0 0 0 0 0 0 0 0 0 0 0 0 0 0.25 0"/>
<feBlend mode="normal" in2="BackgroundImageFix" result="effect1_dropShadow_2598_928"/>
<feBlend mode="normal" in="SourceGraphic" in2="effect1_dropShadow_2598_928" result="shape"/>
</filter>
</defs>
</svg>
