<svg width="150" height="151" viewBox="0 0 150 151" fill="none" xmlns="http://www.w3.org/2000/svg">
<g filter="url(#filter0_d_2598_528)">
<rect x="34.6578" y="61.7679" width="27.0539" height="52.9028" rx="10.5095" fill="white" stroke="black" stroke-width="0.85093"/>
<rect x="87.0638" y="61.7679" width="27.0539" height="52.9028" rx="10.5095" fill="white" stroke="black" stroke-width="0.85093"/>
<circle cx="47.5996" cy="48.7454" r="7.87007" fill="white" stroke="black" stroke-width="0.85093"/>
<circle cx="99.8911" cy="48.7454" r="7.87007" fill="white" stroke="black" stroke-width="0.85093"/>
<circle cx="73.6883" cy="52.9954" r="7.87007" fill="white" stroke="black" stroke-width="0.85093"/>
<rect x="60.0838" y="65.7034" width="28.5204" height="54.8438" rx="11.1613" fill="white" stroke="black" stroke-width="0.85093"/>
<mask id="path-7-outside-1_2598_528" maskUnits="userSpaceOnUse" x="5.88599" y="2" width="139" height="139" fill="black">
<rect fill="white" x="5.88599" y="2" width="139" height="139"/>
<path d="M61.8847 4.31288C75.1393 1.67637 88.8785 3.02984 101.364 8.20156C113.85 13.3733 124.521 22.1318 132.029 33.3685C138.268 42.7051 142.09 53.4042 143.204 64.5082C143.581 68.2631 140.486 71.3305 136.712 71.3305C132.938 71.3303 129.924 68.2591 129.453 64.515C128.398 56.1186 125.403 48.0483 120.667 40.9603C114.66 31.9711 106.123 24.9649 96.1347 20.8275C86.1462 16.6902 75.1544 15.607 64.5507 17.7162C53.9471 19.8254 44.2072 25.0323 36.5624 32.6771C28.9176 40.3219 23.7117 50.0618 21.6024 60.6654C19.4932 71.2691 20.5754 82.2609 24.7128 92.2494C28.0164 100.225 33.1503 107.274 39.661 112.849C41.9546 112.588 44.6331 112.414 47.4735 112.223C50.6661 111.62 54.8101 110.433 59.4638 107.448C72.1667 99.2974 82.6301 92.9486 86.4892 98.9633C88.5289 102.143 86.5017 105.315 82.2616 108.805C87.4034 111.418 91.6382 115.008 101.551 108.093C101.699 107.635 101.843 107.162 101.978 106.676C106.041 92.1407 109.629 80.4398 116.512 82.3627C123.394 84.2861 119.4 95.8739 115.338 110.41C114.707 112.666 113.938 114.623 113.066 116.313C110.746 122.371 103.748 129.875 88.2841 137.139C81.5406 140.307 74.3432 140.59 67.4286 139.214C56.6702 137.98 46.3196 134.201 37.2538 128.144C26.0171 120.636 17.2585 109.964 12.0868 97.4789C6.91511 84.9933 5.56261 71.2541 8.19912 57.9994C10.8357 44.7449 17.3433 32.5701 26.8993 23.0141C36.4553 13.458 48.6301 6.94942 61.8847 4.31288Z"/>
</mask>
<path d="M61.8847 4.31288C75.1393 1.67637 88.8785 3.02984 101.364 8.20156C113.85 13.3733 124.521 22.1318 132.029 33.3685C138.268 42.7051 142.09 53.4042 143.204 64.5082C143.581 68.2631 140.486 71.3305 136.712 71.3305C132.938 71.3303 129.924 68.2591 129.453 64.515C128.398 56.1186 125.403 48.0483 120.667 40.9603C114.66 31.9711 106.123 24.9649 96.1347 20.8275C86.1462 16.6902 75.1544 15.607 64.5507 17.7162C53.9471 19.8254 44.2072 25.0323 36.5624 32.6771C28.9176 40.3219 23.7117 50.0618 21.6024 60.6654C19.4932 71.2691 20.5754 82.2609 24.7128 92.2494C28.0164 100.225 33.1503 107.274 39.661 112.849C41.9546 112.588 44.6331 112.414 47.4735 112.223C50.6661 111.62 54.8101 110.433 59.4638 107.448C72.1667 99.2974 82.6301 92.9486 86.4892 98.9633C88.5289 102.143 86.5017 105.315 82.2616 108.805C87.4034 111.418 91.6382 115.008 101.551 108.093C101.699 107.635 101.843 107.162 101.978 106.676C106.041 92.1407 109.629 80.4398 116.512 82.3627C123.394 84.2861 119.4 95.8739 115.338 110.41C114.707 112.666 113.938 114.623 113.066 116.313C110.746 122.371 103.748 129.875 88.2841 137.139C81.5406 140.307 74.3432 140.59 67.4286 139.214C56.6702 137.98 46.3196 134.201 37.2538 128.144C26.0171 120.636 17.2585 109.964 12.0868 97.4789C6.91511 84.9933 5.56261 71.2541 8.19912 57.9994C10.8357 44.7449 17.3433 32.5701 26.8993 23.0141C36.4553 13.458 48.6301 6.94942 61.8847 4.31288Z" fill="white"/>
<path d="M61.8847 4.31288L61.7187 3.4783L61.7187 3.4783L61.8847 4.31288ZM101.364 8.20156L101.69 7.4154V7.4154L101.364 8.20156ZM132.029 33.3685L132.737 32.8958V32.8958L132.029 33.3685ZM143.204 64.5082L144.051 64.4232L143.204 64.5082ZM136.712 71.3305L136.712 72.1814H136.712V71.3305ZM129.453 64.515L128.609 64.6211L128.609 64.6212L129.453 64.515ZM120.667 40.9603L121.374 40.4876L120.667 40.9603ZM96.1347 20.8275L96.4603 20.0414L96.4603 20.0414L96.1347 20.8275ZM64.5507 17.7162L64.3847 16.8816H64.3847L64.5507 17.7162ZM36.5624 32.6771L35.9607 32.0754L36.5624 32.6771ZM21.6024 60.6654L20.7679 60.4994L20.7679 60.4994L21.6024 60.6654ZM24.7128 92.2494L23.9266 92.575L23.9266 92.5751L24.7128 92.2494ZM39.661 112.849L39.1076 113.495L39.3891 113.736L39.7574 113.694L39.661 112.849ZM47.4735 112.223L47.5305 113.072L47.5814 113.069L47.6316 113.059L47.4735 112.223ZM59.4638 107.448L59.9233 108.164L59.4638 107.448ZM86.4892 98.9633L87.2054 98.5038L87.2054 98.5038L86.4892 98.9633ZM82.2616 108.805L81.7209 108.148L80.7167 108.975L81.8762 109.564L82.2616 108.805ZM101.551 108.093L102.038 108.791L102.272 108.627L102.36 108.355L101.551 108.093ZM101.978 106.676L101.159 106.447L101.978 106.676ZM116.512 82.3627L116.741 81.5432L116.741 81.5431L116.512 82.3627ZM115.338 110.41L114.518 110.181L115.338 110.41ZM113.066 116.313L112.31 115.923L112.288 115.965L112.272 116.009L113.066 116.313ZM88.2841 137.139L88.6459 137.909L88.6459 137.909L88.2841 137.139ZM67.4286 139.214L67.5946 138.38L67.5603 138.373L67.5256 138.369L67.4286 139.214ZM37.2538 128.144L36.7811 128.851H36.7811L37.2538 128.144ZM12.0868 97.4789L11.3007 97.8045H11.3007L12.0868 97.4789ZM8.19912 57.9994L7.36454 57.8334H7.36454L8.19912 57.9994ZM26.8993 23.0141L26.2976 22.4124L26.8993 23.0141ZM61.8847 4.31288L62.0507 5.14746C75.1403 2.54378 88.7084 3.8804 101.039 8.98771L101.364 8.20156L101.69 7.4154C89.0487 2.17929 75.1384 0.808952 61.7187 3.4783L61.8847 4.31288ZM101.364 8.20156L101.039 8.98771C113.369 14.095 123.907 22.7445 131.322 33.8413L132.029 33.3685L132.737 32.8958C125.135 21.5191 114.331 12.6515 101.69 7.4154L101.364 8.20156ZM132.029 33.3685L131.322 33.8413C137.482 43.0616 141.257 53.6275 142.357 64.5931L143.204 64.5082L144.051 64.4232C142.923 53.181 139.053 42.3486 132.737 32.8958L132.029 33.3685ZM143.204 64.5082L142.357 64.5931C142.678 67.7899 140.041 70.4795 136.712 70.4795V71.3305V72.1814C140.93 72.1814 144.483 68.7363 144.051 64.4232L143.204 64.5082ZM136.712 71.3305L136.712 70.4795C133.431 70.4794 130.723 67.794 130.297 64.4089L129.453 64.515L128.609 64.6212C129.125 68.7242 132.445 72.1812 136.712 72.1814L136.712 71.3305ZM129.453 64.515L130.297 64.4089C129.226 55.8818 126.184 47.6859 121.374 40.4876L120.667 40.9603L119.959 41.4331C124.622 48.4107 127.57 56.3554 128.609 64.6211L129.453 64.515ZM120.667 40.9603L121.374 40.4876C115.274 31.3584 106.604 24.2432 96.4603 20.0414L96.1347 20.8275L95.809 21.6137C105.642 25.6867 114.046 32.5837 119.959 41.4331L120.667 40.9603ZM96.1347 20.8275L96.4603 20.0414C86.3164 15.8396 75.1535 14.7396 64.3847 16.8816L64.5507 17.7162L64.7167 18.5508C75.1553 16.4744 85.976 17.5407 95.809 21.6137L96.1347 20.8275ZM64.5507 17.7162L64.3847 16.8816C53.6159 19.0237 43.7245 24.3117 35.9607 32.0754L36.5624 32.6771L37.1641 33.2788C44.6899 25.753 54.2782 20.6272 64.7167 18.5508L64.5507 17.7162ZM36.5624 32.6771L35.9607 32.0754C28.1969 39.8392 22.9099 49.7308 20.7679 60.4994L21.6024 60.6654L22.437 60.8314C24.5134 50.3929 29.6384 40.8046 37.1641 33.2788L36.5624 32.6771ZM21.6024 60.6654L20.7679 60.4994C18.6258 71.2682 19.7249 82.431 23.9266 92.575L24.7128 92.2494L25.499 91.9238C21.426 82.0908 20.3606 71.2701 22.437 60.8314L21.6024 60.6654ZM24.7128 92.2494L23.9266 92.5751C27.2817 100.675 32.4955 107.833 39.1076 113.495L39.661 112.849L40.2145 112.203C33.805 106.714 28.7511 99.7749 25.4989 91.9238L24.7128 92.2494ZM39.661 112.849L39.7574 113.694C42.0268 113.436 44.6823 113.263 47.5305 113.072L47.4735 112.223L47.4165 111.374C44.5839 111.564 41.8824 111.739 39.5647 112.004L39.661 112.849ZM47.4735 112.223L47.6316 113.059C50.9016 112.441 55.1552 111.223 59.9233 108.164L59.4638 107.448L59.0043 106.731C54.4649 109.644 50.4307 110.798 47.3155 111.387L47.4735 112.223ZM59.4638 107.448L59.9233 108.164C66.2945 104.076 72.0123 100.502 76.606 98.6849C78.9041 97.7756 80.8299 97.3444 82.364 97.4542C83.8438 97.5601 84.9663 98.1655 85.773 99.4228L86.4892 98.9633L87.2054 98.5038C86.0825 96.7537 84.4499 95.8972 82.4855 95.7566C80.5754 95.6199 78.3678 96.1575 75.9799 97.1024C71.2014 98.9931 65.3359 102.669 59.0043 106.731L59.4638 107.448ZM86.4892 98.9633L85.7729 99.4227C86.6176 100.739 86.6305 102.011 85.9634 103.399C85.264 104.854 83.8158 106.424 81.7209 108.148L82.2616 108.805L82.8024 109.462C84.9475 107.697 86.633 105.935 87.4973 104.136C88.3938 102.271 88.4005 100.367 87.2054 98.5038L86.4892 98.9633ZM82.2616 108.805L81.8762 109.564C84.3325 110.812 86.8787 112.483 90.0138 112.867C93.2332 113.26 96.9786 112.32 102.038 108.791L101.551 108.093L101.064 107.395C96.2103 110.781 92.882 111.503 90.2205 111.177C87.4746 110.841 85.3325 109.411 82.6471 108.046L82.2616 108.805ZM101.551 108.093L102.36 108.355C102.512 107.886 102.659 107.403 102.798 106.905L101.978 106.676L101.159 106.447C101.026 106.922 100.886 107.383 100.741 107.831L101.551 108.093ZM101.978 106.676L102.798 106.905C104.835 99.6148 106.727 93.1431 108.948 88.73C110.059 86.5222 111.209 84.9191 112.428 83.9805C113.603 83.075 114.844 82.7803 116.283 83.1822L116.512 82.3627L116.741 81.5431C114.738 80.9836 112.949 81.4304 111.389 82.6323C109.872 83.801 108.582 85.671 107.427 87.965C105.117 92.5556 103.184 99.202 101.159 106.447L101.978 106.676ZM116.512 82.3627L116.283 83.1822C117.715 83.5824 118.55 84.4491 118.996 85.7823C119.464 87.181 119.503 89.1089 119.185 91.5465C118.549 96.4217 116.563 102.862 114.518 110.181L115.338 110.41L116.157 110.639C118.174 103.421 120.216 96.8 120.873 91.7665C121.201 89.2499 121.202 87.0116 120.61 85.2424C119.996 83.4077 118.75 82.1047 116.741 81.5432L116.512 82.3627ZM115.338 110.41L114.518 110.181C113.901 112.388 113.153 114.29 112.31 115.923L113.066 116.313L113.823 116.703C114.724 114.957 115.513 112.945 116.157 110.639L115.338 110.41ZM113.066 116.313L112.272 116.009C110.067 121.767 103.303 129.144 87.9223 136.369L88.2841 137.139L88.6459 137.909C104.193 130.606 111.426 122.976 113.861 116.617L113.066 116.313ZM88.2841 137.139L87.9223 136.369C81.3816 139.441 74.3773 139.729 67.5946 138.38L67.4286 139.214L67.2626 140.049C74.309 141.451 81.6996 141.172 88.6459 137.909L88.2841 137.139ZM67.4286 139.214L67.5256 138.369C56.9012 137.15 46.6794 133.419 37.7266 127.436L37.2538 128.144L36.7811 128.851C45.9598 134.984 56.4393 138.81 67.3316 140.06L67.4286 139.214ZM37.2538 128.144L37.7266 127.436C26.6297 120.022 17.9803 109.483 12.873 97.1533L12.0868 97.4789L11.3007 97.8045C16.5368 110.446 25.4044 121.25 36.7811 128.851L37.2538 128.144ZM12.0868 97.4789L12.873 97.1533C7.76568 84.8232 6.43001 71.255 9.0337 58.1654L8.19912 57.9994L7.36454 57.8334C4.6952 71.2531 6.06453 85.1634 11.3007 97.8045L12.0868 97.4789ZM8.19912 57.9994L9.0337 58.1654C11.6374 45.076 18.064 33.0528 27.501 23.6158L26.8993 23.0141L26.2976 22.4124C16.6226 32.0874 10.0339 44.4138 7.36454 57.8334L8.19912 57.9994ZM26.8993 23.0141L27.501 23.6158C36.9381 14.1787 48.9612 7.75116 62.0507 5.14746L61.8847 4.31288L61.7187 3.4783C48.299 6.14768 35.9726 12.7373 26.2976 22.4124L26.8993 23.0141Z" fill="black" mask="url(#path-7-outside-1_2598_528)"/>
</g>
<defs>
<filter id="filter0_d_2598_528" x="0.179505" y="0.391742" width="149.763" height="150.412" filterUnits="userSpaceOnUse" color-interpolation-filters="sRGB">
<feFlood flood-opacity="0" result="BackgroundImageFix"/>
<feColorMatrix in="SourceAlpha" type="matrix" values="0 0 0 0 0 0 0 0 0 0 0 0 0 0 0 0 0 0 127 0" result="hardAlpha"/>
<feOffset dy="4.09896"/>
<feGaussianBlur stdDeviation="2.92783"/>
<feComposite in2="hardAlpha" operator="out"/>
<feColorMatrix type="matrix" values="0 0 0 0 0 0 0 0 0 0 0 0 0 0 0 0 0 0 0.25 0"/>
<feBlend mode="normal" in2="BackgroundImageFix" result="effect1_dropShadow_2598_528"/>
<feBlend mode="normal" in="SourceGraphic" in2="effect1_dropShadow_2598_528" result="shape"/>
</filter>
</defs>
</svg>
